<?xml version="1.0" standalone="no"?>
<!DOCTYPE svg PUBLIC "-//W3C//DTD SVG 20010904//EN"
 "http://www.w3.org/TR/2001/REC-SVG-20010904/DTD/svg10.dtd">
<svg version="1.0" xmlns="http://www.w3.org/2000/svg"
 width="449.000000pt" height="449.000000pt" viewBox="0 0 449.000000 449.000000"
 preserveAspectRatio="xMidYMid meet">
<metadata>
Created by potrace 1.14, written by Peter Selinger 2001-2017
</metadata>
<g transform="translate(0.000000,449.000000) scale(0.100000,-0.100000)"
fill="#000000" stroke="none">
<path d="M2087 4474 c-1 -1 -31 -5 -67 -8 -36 -3 -77 -8 -92 -11 -16 -3 -38
-7 -50 -9 -55 -10 -157 -37 -208 -54 -30 -11 -57 -20 -60 -20 -7 -1 -40 -12
-83 -28 -52 -19 -61 -18 -129 16 -32 17 -69 30 -83 30 -39 0 -76 -40 -79 -85
-5 -66 -13 -79 -73 -113 -177 -102 -252 -163 -448 -362 -102 -104 -184 -201
-230 -270 -17 -25 -37 -53 -46 -63 -9 -9 -22 -30 -30 -45 -8 -15 -17 -29 -20
-32 -23 -19 -144 -337 -154 -405 -1 -11 -8 -33 -14 -49 -6 -16 -14 -45 -17
-65 -5 -36 -13 -94 -21 -141 -6 -40 -16 -293 -16 -430 0 -108 4 -196 18 -365
2 -22 13 -78 24 -125 12 -47 23 -93 26 -104 28 -116 97 -244 181 -331 29 -32
54 -61 54 -65 0 -5 9 -12 20 -15 11 -4 18 -10 15 -15 -3 -5 3 -13 12 -19 10
-6 15 -11 11 -11 -4 0 11 -17 33 -37 22 -21 42 -49 44 -63 3 -14 11 -29 18
-35 8 -5 15 -14 16 -20 2 -5 7 -9 12 -8 5 2 9 -4 9 -12 0 -8 6 -15 13 -15 7 0
18 -14 24 -31 8 -20 17 -29 30 -27 9 2 18 -3 19 -9 1 -7 2 -17 3 -23 0 -5 6
-10 12 -10 5 0 8 4 5 8 -3 5 1 9 9 9 11 0 12 -5 4 -20 -6 -10 -7 -22 -3 -25 4
-4 9 -1 11 6 6 16 43 -24 43 -46 0 -9 3 -13 6 -10 3 4 21 -11 39 -31 19 -21
41 -38 49 -38 8 0 13 4 10 9 -3 5 -10 5 -16 2 -7 -4 -8 -2 -4 4 10 16 12 16
39 -12 14 -14 28 -22 33 -18 4 4 4 -1 1 -11 -4 -10 -3 -16 2 -12 13 7 42 -5
35 -16 -3 -5 1 -6 8 -4 8 3 27 -9 43 -26 17 -18 23 -29 15 -25 -8 4 -6 0 4 -8
11 -9 16 -16 11 -16 -5 0 0 -6 11 -14 18 -14 18 -15 -6 -25 l-25 -10 30 -2
c17 -1 34 -1 38 0 5 1 6 -3 2 -9 -3 -5 1 -20 9 -32 9 -12 16 -30 16 -40 0 -16
11 -23 33 -19 4 0 7 -4 7 -10 0 -5 5 -7 10 -4 6 3 10 1 10 -6 0 -7 3 -9 7 -6
3 4 -4 18 -17 32 -18 19 -26 22 -32 13 -4 -7 -8 -8 -8 -3 0 19 18 39 39 42 13
2 21 -3 21 -11 0 -8 10 -13 23 -12 13 1 21 -4 20 -11 -2 -7 2 -14 7 -14 6 -1
15 -2 20 -3 12 -1 14 -15 4 -24 -4 -4 -4 -1 1 7 5 10 4 12 -4 7 -21 -14 -3
-21 51 -21 29 0 56 -4 60 -10 5 -7 15 -6 29 3 11 7 24 11 27 8 3 -3 0 -6 -6
-6 -7 0 -12 -5 -12 -11 0 -5 4 -7 10 -4 5 3 18 2 28 -4 11 -6 24 -6 35 0 12 7
17 6 17 -2 0 -6 6 -9 14 -6 8 3 13 -1 12 -11 0 -9 6 -17 14 -18 8 0 22 -2 31
-2 9 -1 19 -11 22 -23 3 -12 3 -18 0 -15 -3 3 -18 -1 -34 -10 -28 -14 -46 -15
-42 -3 1 3 -4 6 -12 6 -8 0 -11 -5 -8 -10 4 -6 -1 -8 -11 -4 -11 4 -15 3 -10
-4 4 -7 0 -9 -14 -5 -15 5 -20 3 -18 -8 1 -9 6 -19 11 -23 4 -4 5 -2 1 4 -5 9
-2 11 7 7 8 -3 18 -1 22 5 10 16 19 13 34 -11 14 -23 14 -23 -8 -4 -18 16 -21
17 -21 3 0 -8 3 -17 8 -20 4 -2 0 -2 -8 1 -16 4 -36 6 -58 3 -10 -1 -10 -6 -2
-22 7 -11 9 -23 6 -27 -3 -3 -6 1 -6 9 0 11 -2 11 -10 -1 -8 -13 -10 -12 -10
3 0 10 -5 15 -10 12 -6 -4 -8 -11 -5 -16 3 -5 -1 -6 -9 -3 -9 3 -16 1 -16 -5
0 -6 -5 -11 -11 -11 -5 0 -8 4 -4 9 3 5 1 12 -4 16 -5 3 -14 -3 -20 -12 -6
-10 -11 -13 -11 -8 0 6 5 16 12 23 18 18 -1 14 -26 -6 -13 -9 -21 -24 -19 -32
4 -13 3 -13 -5 -1 -8 11 -4 21 16 41 15 14 30 24 35 22 4 -2 7 2 7 9 0 7 6 5
14 -6 13 -18 14 -18 25 3 7 13 18 19 31 17 13 -2 20 2 20 11 0 19 -13 18 -42
-6 -14 -10 -28 -16 -32 -13 -12 13 -46 10 -46 -4 0 -7 -5 -13 -11 -13 -5 0 -7
5 -3 12 5 7 3 8 -5 4 -7 -5 -10 -14 -7 -22 3 -8 0 -11 -8 -8 -8 3 -17 0 -22
-7 -5 -8 -3 -10 6 -4 8 5 11 4 6 -3 -4 -6 -13 -9 -20 -6 -15 6 -29 -22 -19
-38 3 -7 1 -8 -5 -4 -11 6 -14 0 -11 -21 1 -5 5 -7 11 -5 5 1 7 -2 4 -7 -4 -5
-2 -12 4 -16 5 -3 10 0 10 7 0 10 2 10 9 0 11 -19 15 -19 34 -4 12 10 21 11
34 3 10 -6 12 -11 6 -11 -7 0 -13 -5 -13 -10 0 -6 6 -10 13 -9 24 3 37 -1 37
-12 0 -8 -4 -8 -14 1 -12 9 -15 8 -13 -9 1 -13 6 -19 14 -17 7 3 10 -1 7 -8
-4 -10 7 -13 45 -11 46 2 49 1 40 -16 -5 -11 -14 -19 -20 -19 -6 0 -7 -5 -3
-11 4 -7 14 1 26 20 17 27 23 30 36 19 9 -7 13 -8 9 -2 -3 6 3 18 14 27 23 20
25 39 4 31 -8 -4 -12 -11 -8 -17 4 -6 1 -7 -7 -2 -8 5 -11 4 -6 -3 4 -7 -1
-10 -14 -7 -13 2 -18 0 -14 -7 4 -7 0 -7 -12 -1 -11 5 -31 8 -46 7 -24 -2 -27
1 -26 21 2 19 5 22 20 14 10 -6 16 -14 13 -20 -8 -12 2 -12 25 1 12 7 21 7 25
0 4 -6 11 -5 19 3 8 6 12 15 9 19 -2 4 3 5 11 2 9 -3 16 -1 16 4 0 6 9 10 19
9 17 -1 18 -3 3 -25 -12 -18 -12 -26 -3 -35 10 -9 11 -8 5 6 -6 17 -5 18 13 6
13 -7 28 -9 39 -4 11 5 24 7 29 6 6 -2 6 1 2 6 -5 4 -14 8 -20 8 -5 0 -12 7
-14 15 -4 12 -3 12 5 2 5 -8 13 -14 17 -14 4 0 12 6 17 14 8 10 9 9 4 -4 -3
-10 2 -25 11 -34 16 -16 15 -16 -7 -10 -22 6 -23 6 -7 -5 14 -8 22 -8 30 0 14
14 30 15 22 1 -3 -5 -2 -10 3 -10 14 0 23 28 12 35 -5 3 -7 12 -4 20 4 8 10
12 16 9 5 -3 7 -12 4 -20 -3 -8 -1 -14 5 -14 6 0 8 -4 5 -9 -3 -5 1 -14 9 -21
8 -7 15 -9 15 -4 0 5 5 2 11 -6 9 -13 10 -12 5 3 -6 20 -5 20 28 7 19 -7 24
-6 20 4 -3 7 2 13 11 13 8 0 15 -4 15 -9 0 -4 9 -3 20 4 12 8 18 20 16 34 -3
15 3 25 20 33 32 14 37 14 28 -1 -7 -13 33 18 49 37 5 6 7 3 4 -7 -8 -23 3
-30 22 -15 14 10 14 10 3 -5 -9 -11 -10 -18 -2 -23 5 -3 10 -2 10 3 0 5 7 9
16 9 15 0 14 -2 -1 -13 -14 -10 -22 -11 -32 -3 -25 21 -14 -8 15 -37 15 -16
25 -28 23 -27 -2 2 -11 -3 -20 -10 -14 -11 -15 -10 -1 7 14 18 13 18 -10 11
-14 -4 -30 -13 -36 -21 -6 -7 -14 -11 -17 -7 -4 3 -7 1 -7 -6 0 -7 -5 -9 -10
-6 -5 3 -10 1 -10 -5 0 -6 -4 -9 -9 -5 -5 3 -12 1 -16 -4 -3 -6 6 -7 22 -4 16
3 34 6 41 6 6 0 12 3 12 7 0 4 6 7 13 7 26 1 162 28 162 33 0 1 11 4 25 6 13
3 29 9 34 14 4 4 15 6 24 3 9 -4 13 -2 9 4 -4 6 3 9 18 7 14 -1 25 2 25 8 0 6
6 8 13 5 7 -3 30 4 52 14 21 10 45 19 52 19 12 0 17 13 14 33 -1 5 3 6 9 2 6
-3 8 -11 5 -16 -9 -13 9 -11 23 3 11 11 31 18 60 20 6 1 12 5 12 9 0 4 -6 10
-12 13 -7 3 -3 3 10 0 14 -3 22 -1 22 7 0 10 3 10 11 2 9 -9 17 -8 34 3 14 9
26 11 29 5 3 -5 15 -7 26 -4 12 3 20 0 20 -8 0 -7 -3 -10 -6 -6 -4 3 -12 1
-20 -6 -32 -29 -42 -36 -47 -31 -2 2 -10 -2 -17 -11 -7 -8 -19 -15 -26 -15 -8
0 -14 -5 -14 -11 0 -5 -5 -7 -12 -3 -8 5 -9 2 -5 -10 4 -10 7 -19 7 -20 0 -2
11 -1 25 2 14 2 22 9 18 15 -4 7 0 8 11 4 24 -9 68 2 59 16 -3 6 -1 7 6 3 6
-4 18 -2 26 4 8 7 15 10 15 6 0 -3 26 7 58 22 31 16 75 35 97 42 37 12 133 58
145 70 3 3 23 15 45 27 46 24 101 55 148 82 17 10 51 29 73 43 121 69 488 435
550 548 10 19 21 37 24 40 17 15 50 85 46 96 -3 9 0 11 11 7 13 -5 15 -2 10
11 -4 9 -3 15 2 12 14 -9 81 101 75 121 -4 12 -3 14 3 6 6 -9 12 -7 22 8 10
17 10 20 -1 14 -7 -3 -4 1 6 9 11 9 16 16 10 16 -5 0 -3 4 4 9 7 4 14 18 15
30 1 13 9 27 19 32 10 5 18 19 18 29 0 11 5 20 11 20 6 0 9 6 6 14 -3 8 0 16
6 19 24 9 127 240 113 254 -3 3 2 12 10 21 9 8 13 23 11 33 -3 11 -2 19 3 19
4 0 10 9 13 20 3 11 0 20 -6 20 -7 0 -5 5 3 10 11 7 12 10 2 10 -10 0 -9 4 2
16 9 8 14 19 11 24 -3 5 -1 12 5 15 8 5 7 12 -2 23 -10 12 -10 14 0 8 8 -5 12
2 13 23 2 39 3 43 12 59 5 7 2 15 -8 18 -13 5 -14 9 -4 15 14 8 20 49 7 49 -5
0 -13 -10 -18 -22 -5 -13 -9 -18 -9 -11 -1 20 11 43 23 43 14 0 15 58 2 79 -6
10 -6 12 2 7 16 -10 15 7 0 23 -10 11 -10 13 0 7 9 -5 12 5 13 36 1 24 3 57 4
73 1 17 -3 36 -8 43 -6 8 -6 12 2 12 13 0 10 34 -3 37 -5 0 -13 8 -18 17 -5 9
-15 13 -21 10 -7 -4 -6 -1 2 7 10 11 15 11 18 2 9 -26 20 -12 20 27 0 21 -4
37 -9 34 -4 -3 -8 0 -8 6 0 6 -5 8 -12 4 -9 -6 -9 -3 0 9 8 9 10 22 6 29 -6
10 -5 10 8 0 14 -11 16 -10 13 5 -1 10 -8 17 -14 15 -14 -3 -11 30 4 40 6 5 6
8 -2 8 -7 0 -10 10 -7 24 3 16 -2 26 -12 30 -14 5 -15 4 -4 -9 10 -12 10 -15
-4 -15 -10 0 -14 -5 -11 -10 4 -6 12 -7 18 -3 7 4 5 -2 -3 -12 -11 -14 -11
-17 -2 -11 11 7 12 4 5 -10 -5 -11 -9 -32 -7 -49 1 -16 0 -24 -3 -17 -4 10
-11 5 -24 -15 -10 -15 -19 -23 -19 -16 0 6 5 15 10 18 6 4 8 10 5 15 -3 4 2
10 10 14 8 3 15 10 15 16 0 6 -4 9 -8 6 -5 -3 -9 1 -9 9 0 8 5 11 10 8 5 -3 7
0 5 8 -3 8 -14 13 -24 11 -19 -3 -19 -3 0 11 18 13 18 15 1 24 -12 7 -14 13
-6 17 6 4 11 2 11 -4 0 -6 5 -8 10 -5 6 4 8 11 5 16 -4 5 0 12 9 15 8 3 14 14
13 24 -1 10 -5 16 -9 14 -4 -3 -16 0 -25 6 -17 10 -17 10 1 8 20 -3 32 27 15
38 -5 3 -7 9 -4 14 3 4 -2 13 -10 20 -7 6 -11 18 -8 27 5 12 1 14 -18 9 -23
-7 -23 -6 -6 8 15 11 16 19 8 33 -8 14 -11 15 -12 3 -1 -8 -1 -18 -1 -22 1 -3
-5 -9 -14 -12 -8 -3 -12 -2 -9 4 4 6 -8 10 -29 10 -19 0 -38 5 -42 12 -4 6 -3
9 2 6 5 -3 17 3 26 13 14 15 15 19 2 30 -13 11 -19 6 -15 -15 1 -5 -5 -4 -13
4 -9 7 -16 9 -16 5 0 -4 -7 -2 -15 5 -8 7 -15 18 -15 24 0 6 8 2 17 -9 l16
-20 -8 20 c-4 11 -10 28 -12 37 -3 10 -9 15 -14 12 -5 -3 -6 -10 -3 -16 5 -7
2 -8 -6 -3 -10 6 -12 4 -7 -9 4 -9 3 -15 -2 -11 -10 6 -11 45 -1 42 3 -1 6 3
8 8 1 6 -2 10 -7 10 -5 0 -12 3 -15 6 -9 9 37 5 52 -4 19 -12 14 7 -8 36 -14
17 -27 24 -38 20 -13 -5 -14 -3 -6 6 16 17 50 -4 65 -41 6 -16 16 -28 21 -28
5 0 6 5 2 11 -5 8 1 10 18 6 34 -9 40 0 21 29 -8 13 -12 24 -8 24 4 0 2 7 -5
15 -7 8 -9 15 -4 15 5 0 0 7 -10 15 -13 10 -15 15 -6 15 7 0 11 3 8 6 -10 9
-42 12 -53 4 -19 -14 -45 -19 -45 -10 0 6 9 10 21 10 11 0 18 4 14 9 -3 6 4 8
15 6 15 -3 20 1 20 16 0 13 -4 18 -12 13 -8 -5 -9 -2 -4 11 6 16 4 16 -10 4
-16 -13 -16 -12 -7 6 9 15 8 25 -3 39 -7 11 -17 16 -21 12 -4 -4 -1 -11 7 -16
8 -5 12 -12 8 -15 -3 -4 -20 7 -36 25 -17 17 -33 27 -36 21 -4 -5 -2 -13 4
-16 8 -5 7 -11 -1 -21 -13 -16 2 -19 18 -3 7 7 12 6 16 -5 4 -9 1 -13 -7 -10
-16 6 -72 -41 -57 -50 6 -4 16 2 23 14 14 21 33 26 43 10 4 -6 -1 -7 -12 -3
-16 6 -17 5 -3 -13 14 -18 14 -18 -2 -5 -10 7 -18 9 -18 4 0 -5 -11 -16 -25
-23 -13 -7 -22 -17 -19 -21 3 -5 17 -1 32 8 21 12 19 9 -8 -15 -19 -17 -30
-31 -24 -32 5 0 15 5 22 12 7 7 12 9 12 5 0 -4 -14 -16 -31 -26 l-31 -19 -34
33 c-18 19 -36 30 -39 24 -4 -5 -4 -9 0 -9 3 0 1 -10 -6 -21 -9 -17 -8 -20 3
-14 8 4 8 2 -2 -7 -8 -7 -16 -19 -18 -26 -3 -15 20 -16 36 0 7 7 12 9 12 5 0
-4 9 -3 20 3 11 6 21 7 21 3 5 -29 4 -65 -2 -69 -10 -6 -19 24 -13 41 14 35
-52 -1 -67 -37 -8 -20 -15 -26 -22 -19 -6 6 -16 11 -21 11 -6 0 -4 -6 5 -13
14 -10 15 -16 5 -30 -12 -15 -14 -14 -26 9 -12 22 -12 26 9 40 19 13 20 18 9
32 -8 10 -9 13 -1 9 11 -7 26 7 29 28 1 6 -7 18 -16 28 -16 16 -18 17 -31 0
-12 -15 -12 -16 4 -10 10 4 16 3 12 -2 -3 -5 1 -11 7 -14 7 -2 9 -8 5 -13 -4
-5 -11 -4 -15 2 -4 6 -16 16 -27 22 -11 6 -14 12 -7 12 7 0 10 5 7 10 -4 6 -3
10 2 9 20 -3 27 2 13 11 -13 8 -12 10 4 10 11 0 16 3 13 6 -3 4 0 16 8 27 9
14 11 25 5 32 -7 8 -4 12 8 12 9 0 20 -5 24 -11 11 -16 10 -38 -2 -31 -6 4 -8
10 -5 15 3 5 1 11 -4 15 -10 5 -7 -27 3 -44 3 -5 -3 -11 -14 -14 -11 -3 -20
-10 -20 -16 0 -9 6 -8 23 0 26 14 47 41 41 51 -3 5 -7 16 -9 25 -2 10 -5 24
-7 32 -1 7 4 16 12 18 13 4 13 3 0 -6 -13 -9 -12 -11 5 -11 13 0 16 -3 8 -8
-9 -6 -7 -13 9 -26 19 -17 19 -19 5 -28 -10 -5 -17 -14 -17 -20 0 -7 5 -7 14
1 11 9 17 8 29 -3 17 -17 28 -11 20 11 -5 12 -1 14 18 8 21 -7 22 -6 11 7 -10
13 -10 19 2 31 13 13 13 17 -4 32 -11 10 -20 23 -19 29 0 6 3 6 6 -1 9 -25 20
-12 18 21 -1 19 3 32 7 29 5 -3 7 -11 4 -19 -6 -16 10 -19 19 -3 4 5 0 18 -9
28 -18 20 -20 31 -6 31 6 0 9 -3 8 -7 -4 -15 34 -63 45 -56 6 3 7 1 3 -5 -4
-7 -3 -12 3 -12 28 0 19 29 -14 47 -10 6 -20 23 -21 37 0 14 3 23 7 20 4 -2 6
-13 4 -24 -2 -12 0 -18 5 -15 4 3 11 -1 14 -7 3 -7 3 -2 0 12 -4 14 -15 34
-25 45 -10 11 -17 23 -16 27 1 3 -2 10 -7 15 -5 5 -6 3 -2 -4 4 -7 3 -13 -2
-13 -5 0 -12 9 -15 20 -3 12 -1 17 5 14 10 -6 -8 30 -27 53 -26 32 -31 40 -44
66 -8 15 -18 27 -23 27 -4 0 -8 6 -8 14 0 8 -10 22 -22 30 -12 9 -19 16 -14
16 4 0 -8 16 -28 36 -20 20 -36 41 -36 47 0 6 -3 8 -6 4 -3 -3 -28 17 -55 45
-26 27 -53 47 -58 44 -5 -4 -13 -1 -17 5 -5 8 -3 9 7 4 12 -8 12 -6 0 8 -7 9
-17 14 -22 11 -5 -3 -9 -1 -9 5 0 10 -66 65 -120 101 -12 8 -32 22 -44 31 -21
16 -213 136 -275 171 -38 22 -207 93 -266 113 -33 10 -114 33 -265 72 -14 4
-97 8 -185 10 -88 2 -211 5 -273 6 -61 2 -113 3 -115 1z m453 -129 c52 -8 76
-15 105 -29 72 -35 147 -67 245 -106 133 -52 186 -77 230 -105 19 -12 62 -40
95 -61 63 -40 277 -221 305 -258 15 -18 23 -59 34 -166 2 -14 -1 -37 -7 -50
-5 -14 -12 -34 -13 -45 -2 -11 -8 -29 -14 -40 -18 -38 -33 -80 -31 -89 1 -4
-3 -14 -9 -20 -5 -7 -7 -16 -4 -19 11 -10 43 12 57 40 9 16 17 22 21 14 4 -6
2 -11 -5 -11 -8 0 -7 -5 2 -17 8 -9 9 -14 3 -10 -8 5 -14 -12 -19 -51 -3 -31
-13 -67 -21 -79 -8 -13 -11 -23 -6 -23 8 0 56 50 57 60 0 3 15 19 32 36 28 27
32 29 36 12 3 -10 11 -18 17 -18 10 0 10 3 1 14 -10 12 -9 13 7 9 18 -4 19 -7
5 -34 -8 -16 -19 -29 -24 -29 -6 0 -8 -4 -5 -9 4 -5 -4 -7 -16 -4 -23 5 -23 5
-3 -12 15 -13 16 -15 3 -12 -15 5 -16 2 -9 -32 1 -2 7 1 14 6 6 6 22 9 34 8
12 -1 20 1 18 5 -8 14 16 76 43 109 62 79 91 107 92 88 0 -30 -37 -130 -75
-200 -20 -37 -33 -67 -28 -67 4 0 0 -5 -10 -11 -9 -6 -15 -15 -12 -20 4 -5 11
-6 17 -3 7 4 8 2 4 -5 -4 -6 -11 -9 -16 -6 -7 4 -21 -19 -21 -35 0 -3 -8 -13
-16 -22 -9 -10 -13 -18 -8 -18 4 0 2 -7 -5 -15 -10 -12 -10 -18 -1 -29 10 -12
8 -14 -11 -10 -13 2 -17 1 -10 -2 10 -5 9 -9 -5 -20 -16 -12 -16 -15 -3 -24
13 -8 12 -10 -5 -10 -11 0 -26 -9 -33 -21 -8 -12 -9 -18 -3 -14 6 3 11 1 11
-5 0 -6 -7 -13 -15 -16 -11 -5 -12 -10 -4 -26 7 -13 16 -17 27 -13 9 4 23 8
30 8 6 0 12 6 12 14 0 7 4 13 9 13 6 0 9 8 9 18 0 9 1 24 3 32 2 9 -2 14 -9
12 -19 -4 -11 30 8 35 13 4 13 3 0 -6 -8 -6 -13 -11 -10 -12 3 0 13 -2 22 -4
10 -2 20 1 24 6 3 5 -1 9 -8 9 -10 1 -9 4 2 13 9 7 15 22 14 35 -1 12 3 22 8
22 6 0 7 -7 4 -16 -3 -9 -2 -12 5 -8 6 3 9 15 6 25 -3 10 -1 22 5 25 5 3 8 15
5 25 -3 12 -1 17 6 12 6 -4 8 0 4 10 -3 9 -1 19 5 23 7 4 8 3 4 -4 -4 -7 -1
-12 9 -12 11 0 15 5 11 16 -3 8 -2 13 3 10 5 -3 12 1 15 10 5 12 1 14 -17 10
-12 -3 -16 -3 -9 0 6 3 12 13 13 22 0 11 2 12 6 4 2 -6 10 -9 16 -5 7 3 9 3 5
-2 -4 -4 -3 -17 3 -28 6 -10 7 -17 2 -15 -10 5 -54 -39 -45 -45 4 -2 1 -2 -7
0 -9 2 -11 -2 -7 -13 4 -9 1 -23 -5 -30 -6 -8 -9 -21 -5 -29 3 -10 2 -13 -5
-10 -6 4 -13 -2 -16 -14 -3 -12 -9 -21 -14 -21 -5 0 -8 -3 -8 -7 4 -22 -3 -43
-17 -57 -8 -9 -13 -16 -9 -16 3 0 -4 -15 -17 -32 -13 -18 -21 -35 -19 -37 2
-2 -6 -14 -18 -27 -23 -24 -13 -35 22 -26 14 4 15 7 6 13 -10 6 -10 12 4 27 9
10 14 23 10 27 -5 5 1 3 12 -5 30 -22 32 -24 10 -16 -11 4 -16 4 -12 0 4 -4 2
-13 -4 -21 -6 -7 -8 -13 -5 -13 4 0 2 -9 -4 -19 -7 -13 -7 -22 0 -26 20 -12
10 -26 -11 -15 -14 8 -17 15 -11 23 8 9 3 12 -14 13 -19 2 -22 -1 -14 -11 8
-9 6 -14 -6 -19 -9 -4 -19 -4 -22 -1 -3 3 0 5 6 5 7 0 12 5 12 11 0 5 -4 8 -8
5 -4 -2 -14 5 -21 17 -11 18 -11 20 0 10 19 -19 34 -16 18 4 -8 9 -9 14 -4 11
6 -3 15 0 22 7 9 10 6 15 -12 23 -15 7 -26 8 -30 2 -4 -6 2 -10 12 -11 14 0
15 -2 3 -6 -24 -9 -60 -45 -54 -54 3 -5 0 -9 -5 -9 -14 0 -14 13 1 28 9 9 9
12 0 12 -7 0 -12 -5 -12 -11 0 -5 -5 -7 -12 -3 -7 4 -8 3 -4 -4 4 -7 2 -12 -5
-12 -7 0 -9 -3 -6 -7 4 -3 -1 -12 -10 -18 -15 -11 -14 -14 8 -26 13 -7 34 -12
46 -10 11 1 24 -2 27 -7 8 -13 -44 -8 -71 6 -18 10 -24 9 -35 -4 -7 -8 -21
-24 -30 -35 -10 -10 -14 -19 -10 -19 12 0 49 29 37 30 -12 0 16 20 29 20 5 0
0 -10 -12 -23 -12 -13 -19 -27 -15 -31 4 -4 0 -4 -10 0 -10 3 -18 1 -18 -5 -1
-6 -2 -16 -3 -22 0 -6 -12 -18 -26 -26 -23 -14 -24 -14 -6 1 11 9 16 16 12 16
-5 0 -3 7 4 15 11 13 10 14 -4 9 -9 -3 -16 -11 -16 -16 0 -6 -15 -27 -32 -48
-57 -64 -68 -80 -57 -80 5 0 7 -5 4 -10 -4 -6 -12 -7 -18 -4 -7 4 -9 3 -4 -1
4 -5 -3 -19 -15 -32 -17 -19 -19 -23 -5 -17 10 3 17 1 17 -5 0 -6 -6 -11 -14
-11 -7 0 -16 -8 -20 -17 -3 -10 -9 -25 -12 -33 -4 -8 0 -6 8 4 8 10 20 16 25
13 6 -4 17 1 24 11 13 15 12 16 -3 3 -11 -8 -18 -9 -18 -3 0 6 5 14 10 17 6 4
8 16 4 27 -5 18 -4 19 9 7 8 -8 12 -18 9 -24 -3 -5 1 -4 10 2 17 15 29 8 22
-12 -4 -9 1 -12 13 -10 10 2 20 4 23 4 2 1 -6 8 -18 17 -19 13 -21 18 -10 32
7 10 8 14 4 10 -5 -4 -16 -2 -24 5 -13 10 -14 8 -8 -13 6 -21 5 -22 -4 -7 -8
13 -9 22 -1 31 6 7 7 17 3 22 -4 5 2 1 14 -9 11 -9 26 -17 33 -17 7 0 9 -5 5
-12 -4 -6 -3 -8 3 -5 15 10 24 -18 10 -32 -6 -6 -7 -11 -2 -11 14 0 37 16 36
24 -3 18 0 26 7 26 8 0 8 -17 3 -65 -1 -5 -6 -3 -11 5 -6 9 -10 11 -10 3 0 -7
-6 -10 -14 -7 -8 3 -17 1 -21 -5 -4 -7 1 -8 12 -4 16 6 16 5 4 -10 -7 -9 -11
-25 -9 -35 4 -15 -1 -17 -38 -15 -29 2 -44 -2 -48 -12 -3 -8 -11 -12 -18 -10
-8 3 -22 -8 -32 -26 l-19 -32 33 5 c26 4 30 3 18 -6 -13 -10 -13 -13 1 -27 15
-15 17 -16 31 -1 13 14 13 15 -1 10 -10 -4 -16 -1 -16 8 0 9 6 13 14 10 8 -3
11 -2 8 3 -3 5 -1 12 5 16 6 4 8 11 5 16 -4 5 -1 9 4 9 12 0 14 -13 4 -24 -7
-7 -14 -36 -8 -36 13 0 35 14 35 22 0 5 -5 6 -10 3 -12 -8 -13 5 -1 24 7 11
10 8 16 -9 5 -17 2 -27 -11 -37 -16 -11 -16 -13 -1 -13 27 0 38 32 19 56 -24
30 -49 36 -58 16 -4 -9 -6 -20 -6 -24 3 -12 -13 -9 -27 5 -8 6 -11 7 -8 1 3
-6 0 -11 -7 -11 -8 0 -12 7 -9 14 3 8 11 12 18 9 7 -2 19 4 28 14 10 13 24 17
39 14 13 -3 29 -6 36 -6 7 -1 11 -7 8 -15 -7 -16 32 -43 70 -48 26 -3 26 -2
-8 13 -37 17 -47 33 -53 87 -3 22 -1 26 7 15 8 -12 8 -11 3 5 -3 11 -3 16 1
12 4 -4 14 -1 23 6 8 6 5 -3 -8 -20 -12 -18 -17 -33 -11 -33 6 0 9 -4 6 -9 -3
-4 1 -16 8 -26 13 -18 14 -18 25 3 6 12 17 22 23 22 6 0 1 -11 -12 -25 -13
-14 -18 -25 -11 -25 6 0 14 7 17 15 4 8 11 12 17 8 6 -4 3 -12 -9 -21 -16 -13
-17 -14 -1 -9 9 4 17 2 17 -3 0 -15 45 -5 46 11 1 8 2 20 3 27 0 7 6 10 11 7
6 -3 13 1 16 9 3 9 10 13 15 10 5 -3 6 2 3 10 -3 9 -1 16 4 16 6 0 13 9 17 20
3 11 9 19 13 17 4 -1 9 3 11 8 3 6 14 18 25 27 16 13 18 20 9 26 -10 6 -10 12
3 28 13 16 15 16 10 2 -7 -23 11 -33 31 -16 15 11 16 11 10 -4 -3 -10 -1 -20
5 -24 7 -4 8 -3 4 4 -4 7 -2 12 3 12 6 0 11 -5 11 -12 0 -6 3 -9 6 -5 4 3 -3
18 -15 33 -11 15 -21 22 -21 15 0 -6 -5 -11 -11 -11 -5 0 -8 4 -5 8 2 4 -4 14
-16 21 -11 7 -17 8 -13 2 3 -6 2 -11 -3 -11 -16 0 -22 13 -11 26 9 11 15 10
35 -3 14 -9 28 -13 31 -9 4 4 12 -3 19 -15 7 -14 14 -18 18 -10 4 6 3 11 -2
11 -5 0 -9 12 -9 27 0 25 0 26 13 8 8 -10 14 -14 14 -8 0 7 -7 19 -16 27 -17
18 -28 21 -19 7 8 -15 -15 -25 -28 -12 -8 8 -7 11 3 11 12 0 12 2 2 9 -8 4
-13 12 -13 17 2 14 54 25 65 14 7 -7 6 -10 -2 -10 -7 0 -12 -5 -12 -11 0 -5 4
-8 9 -5 5 4 12 0 15 -6 4 -10 8 -9 18 2 7 8 19 16 26 18 17 3 15 -17 -3 -24
-8 -4 -15 -11 -15 -17 0 -6 8 -4 17 5 15 16 17 16 28 1 11 -14 14 -14 33 5 25
25 34 28 26 8 -3 -8 -1 -17 5 -21 7 -3 8 0 5 10 -4 10 -1 14 7 12 8 -2 10 -2
5 1 -4 2 -2 9 5 14 12 7 11 9 -1 7 -29 -3 -41 1 -35 11 4 6 9 8 13 6 4 -2 7 9
7 25 1 16 -3 29 -8 29 -5 0 -7 -6 -4 -14 3 -7 -1 -23 -8 -34 -8 -10 -11 -22
-8 -26 3 -3 1 -6 -6 -6 -7 0 -10 -4 -7 -9 3 -5 -1 -12 -10 -15 -12 -5 -15 -2
-10 9 3 9 2 14 -3 11 -5 -3 -12 1 -15 10 -3 8 -10 13 -14 10 -5 -3 -16 4 -25
15 -9 10 -12 19 -7 19 6 0 10 5 10 11 0 5 -4 8 -9 5 -5 -3 -14 1 -20 8 -8 9
-8 17 -2 20 5 3 11 0 14 -6 2 -8 8 -9 13 -4 5 5 4 11 -4 13 -6 3 -9 10 -6 15
4 7 2 8 -4 4 -19 -11 -14 10 6 25 9 7 14 9 9 4 -4 -4 -1 -18 6 -29 7 -12 12
-33 12 -48 -1 -32 14 -38 22 -8 3 11 10 21 17 21 6 1 17 2 25 3 8 0 15 10 17
20 1 10 9 23 16 27 9 6 10 9 1 9 -15 0 -35 -35 -26 -44 3 -3 2 -6 -4 -6 -17 0
-23 13 -12 27 9 9 8 13 0 13 -10 0 -15 -13 -12 -32 1 -11 -7 -10 -30 2 -10 6
-19 16 -19 22 0 7 5 6 15 -2 14 -12 20 -5 16 22 0 4 12 6 27 5 21 -2 26 2 24
17 -2 10 1 15 7 11 6 -3 9 0 5 8 -3 8 -17 20 -32 27 -16 8 -22 14 -14 17 7 3
24 -2 37 -11 29 -19 46 -21 20 -3 -18 14 -13 43 6 31 5 -3 7 -10 4 -15 -4 -5
-1 -9 4 -9 10 0 14 12 9 27 -4 11 -38 14 -38 4 0 -5 -13 -7 -29 -6 -24 2 -29
-1 -26 -17 2 -10 0 -16 -5 -13 -5 3 -7 14 -5 25 2 12 0 18 -6 15 -5 -4 -9 -13
-9 -22 0 -23 -13 -7 -15 18 -1 13 3 18 11 15 8 -3 18 3 24 12 11 16 11 16 6 0
-3 -10 -1 -20 3 -23 5 -2 11 5 14 16 4 14 10 18 19 13 7 -4 10 -4 6 0 -11 13
15 35 29 25 12 -11 30 7 19 18 -3 4 -6 1 -6 -6 0 -7 -5 -9 -10 -6 -6 4 -7 12
-3 18 5 9 3 9 -8 1 -19 -16 -81 -12 -87 5 -3 9 0 11 8 6 7 -4 5 4 -4 18 -13
20 -14 26 -4 30 7 3 3 4 -9 4 -18 -1 -20 -4 -10 -17 11 -13 10 -13 -7 0 -16
12 -18 12 -11 1 6 -10 4 -12 -5 -6 -9 6 -11 4 -5 -5 6 -9 4 -11 -5 -5 -9 6
-11 4 -5 -5 5 -8 4 -11 -2 -7 -5 3 -10 0 -10 -8 0 -8 4 -12 8 -9 21 12 13 -14
-11 -39 -26 -26 -29 -27 -45 -11 -16 16 -16 19 -1 29 9 7 13 14 10 17 -3 4 0
9 6 13 6 3 9 1 8 -6 -2 -6 2 -13 9 -16 13 -5 12 14 -1 36 -6 9 -3 17 9 23 10
6 13 13 7 17 -7 4 -5 13 4 25 8 11 14 14 14 7 0 -7 4 -10 9 -7 5 3 7 20 5 37
-3 25 -1 30 12 25 12 -4 14 -1 9 14 -4 12 -2 20 5 20 6 0 9 -4 6 -9 -3 -5 2
-12 11 -15 11 -5 24 2 39 21 13 15 23 31 24 36 0 4 5 7 11 7 6 0 0 -15 -15
-34 -19 -26 -23 -37 -14 -42 7 -4 10 -4 6 0 -7 8 0 18 34 56 14 16 14 19 2 24
-17 7 -11 22 15 36 15 8 18 5 15 -15 -1 -14 2 -25 7 -25 5 0 9 -5 9 -11 0 -5
-4 -8 -9 -5 -4 3 -17 -1 -27 -9 -15 -12 -15 -14 -3 -9 20 6 34 -11 18 -22 -8
-5 -10 -2 -5 7 4 8 1 6 -7 -4 -9 -10 -19 -18 -23 -17 -5 1 -10 -4 -12 -12 -2
-8 -1 -9 5 -3 10 13 28 13 40 2 4 -5 2 -7 -6 -5 -7 2 -16 -3 -18 -10 -4 -11
-1 -12 15 -3 12 6 19 17 16 25 -3 9 2 13 16 12 11 0 19 -5 18 -11 -2 -5 -7 -9
-11 -7 -5 1 -6 -1 -4 -5 3 -5 -6 -16 -18 -25 -20 -15 -26 -16 -37 -5 -21 22
-58 38 -68 32 -6 -3 -10 -1 -10 5 0 6 -5 8 -11 5 -6 -4 -8 -13 -5 -21 3 -9 0
-11 -11 -7 -12 5 -14 1 -8 -15 6 -21 -2 -27 -27 -23 -10 1 -10 -16 0 -23 14
-9 45 23 38 40 -5 14 -4 15 9 4 8 -7 12 -16 9 -21 -3 -5 0 -9 6 -9 7 0 10 6 7
14 -3 8 1 20 8 26 18 15 49 5 39 -11 -4 -8 -3 -9 4 -5 7 4 12 1 12 -8 0 -20
14 -20 33 -1 8 8 18 11 22 7 5 -4 4 -1 0 7 -6 11 -4 13 11 7 10 -4 15 -4 11 0
-9 9 13 35 24 28 5 -3 9 -10 9 -15 0 -6 -5 -7 -12 -3 -6 4 -8 3 -4 -4 3 -6 2
-13 -4 -17 -5 -3 -10 -11 -10 -18 0 -6 6 -3 13 8 10 12 16 14 21 7 4 -7 13
-12 19 -12 7 0 4 5 -5 11 -9 5 -15 15 -12 22 2 7 -4 22 -15 34 -15 16 -17 23
-8 33 9 9 9 11 1 7 -15 -9 -27 22 -16 37 5 6 8 26 6 44 -1 17 2 32 6 32 4 0 7
-14 6 -32 -1 -20 4 -33 14 -35 12 -4 12 -3 1 5 -10 8 -11 14 -1 28 8 14 10 14
7 3 -3 -9 0 -22 6 -28 6 -6 8 -11 3 -11 -4 0 0 -7 8 -16 9 -8 14 -19 11 -24
-3 -5 -2 -10 2 -13 5 -2 2 -2 -5 0 -8 1 -10 -2 -6 -9 5 -7 2 -9 -9 -5 -14 5
-15 3 -5 -19 8 -17 14 -21 19 -12 4 7 5 16 3 20 -3 4 0 8 5 8 6 0 10 -10 8
-21 -1 -12 4 -24 12 -27 10 -3 12 1 8 17 -3 11 -1 18 4 15 5 -3 12 2 15 10 3
9 11 13 16 10 6 -4 5 -10 -3 -15 -11 -7 -9 -9 6 -9 16 0 17 -2 5 -10 -9 -6
-17 -5 -22 3 -5 8 -8 7 -8 -5 0 -22 20 -34 30 -18 10 16 22 -14 14 -35 -5 -11
-2 -13 9 -9 9 3 15 11 13 17 -1 7 -1 9 1 4 3 -4 10 -4 16 -1 9 5 8 3 0 -6 -14
-16 0 -49 19 -46 22 3 39 17 33 27 -4 5 -1 9 4 9 22 0 10 -27 -16 -41 -16 -8
-32 -18 -36 -24 -5 -6 -6 -2 -3 9 5 14 2 17 -10 12 -9 -4 -23 -1 -30 5 -8 6
-14 8 -14 4 0 -5 -9 0 -20 10 -11 10 -20 13 -20 7 0 -7 5 -12 11 -12 5 0 9 -8
7 -17 -1 -10 2 -18 7 -18 6 0 9 3 7 8 -3 10 16 9 22 -1 3 -5 -6 -15 -19 -22
-13 -7 -26 -19 -29 -27 -4 -10 4 -7 23 6 31 23 67 23 81 1 12 -20 37 -21 52
-2 11 14 10 15 -7 8 -19 -7 -19 -6 -3 11 13 12 21 14 29 6 8 -8 4 -16 -12 -31
-12 -12 -26 -19 -31 -16 -4 3 -8 0 -8 -5 0 -6 5 -11 12 -11 6 0 8 -3 4 -7 -4
-5 -14 1 -22 12 -8 11 -19 21 -24 21 -6 1 -15 2 -21 3 -5 0 -7 6 -4 11 3 6 -1
10 -10 10 -9 0 -14 -4 -11 -8 2 -4 -9 -14 -25 -21 -28 -12 -40 -31 -19 -31 6
0 10 5 10 10 0 6 5 10 11 10 6 0 8 -7 5 -16 -4 -9 -2 -13 5 -8 7 4 9 0 5 -14
-4 -12 -2 -23 5 -28 7 -4 9 -3 5 4 -3 6 -2 13 4 17 6 4 4 15 -6 30 -15 23 -15
24 8 19 12 -3 28 -6 35 -6 6 -1 9 -7 6 -14 -4 -11 -8 -10 -20 2 -9 8 -18 12
-21 9 -4 -3 0 -10 7 -14 7 -5 11 -13 7 -19 -3 -5 1 -15 9 -22 8 -7 15 -20 15
-30 0 -9 3 -20 7 -23 9 -9 54 34 47 45 -3 4 -14 -2 -25 -14 -12 -15 -17 -17
-13 -7 3 10 1 20 -5 24 -6 3 -11 11 -11 16 0 6 5 7 12 3 7 -5 9 -2 5 9 -4 11
-2 14 9 10 11 -4 12 -8 3 -19 -7 -8 -9 -17 -7 -20 9 -8 48 47 41 59 -3 6 -1 7
5 3 7 -4 12 -2 12 3 0 14 27 14 36 0 8 -14 -16 -31 -34 -24 -9 3 -11 -1 -7
-15 4 -12 2 -20 -5 -20 -6 0 -9 -4 -5 -10 3 -5 13 -6 23 -3 16 6 16 6 0 -11
-10 -9 -22 -15 -27 -12 -5 3 -14 -1 -21 -9 -10 -12 -7 -14 24 -10 21 3 36 1
36 -6 0 -5 -4 -7 -10 -4 -5 3 -10 1 -10 -4 0 -6 -5 -11 -11 -11 -5 0 -7 5 -4
10 9 15 -9 12 -31 -5 -16 -13 -16 -15 -2 -13 16 3 18 1 18 -24 0 -10 -3 -9 -9
1 -7 11 -10 9 -16 -9 -6 -18 -9 -20 -16 -9 -12 20 -11 37 1 19 8 -12 10 -10 7
10 -3 30 -15 50 -29 50 -6 0 -6 -6 2 -15 14 -17 8 -31 -9 -20 -6 3 -9 11 -6
16 4 5 0 9 -7 9 -8 0 -9 3 -3 8 6 4 11 18 12 32 l3 25 -20 -24 c-16 -18 -18
-27 -9 -37 9 -11 8 -18 -1 -29 -9 -10 -9 -15 -1 -15 6 0 11 -7 11 -16 0 -14
-2 -15 -17 -3 -13 11 -13 8 2 -13 20 -28 45 -37 45 -17 0 5 -4 8 -9 4 -5 -3
-13 0 -17 6 -5 8 -3 9 6 4 9 -6 12 -4 8 6 -23 55 -23 55 -5 40 9 -7 15 -17 12
-21 -3 -5 -1 -11 5 -15 13 -8 13 -45 0 -45 -7 0 -7 -7 0 -20 6 -11 8 -25 5
-30 -3 -5 4 -7 16 -5 12 2 18 1 15 -3 -4 -4 -11 -6 -14 -5 -4 0 -15 -3 -24 -8
-21 -11 -25 10 -6 29 9 9 7 13 -5 18 -9 3 -14 11 -10 17 3 6 1 7 -5 3 -7 -4
-12 -3 -12 1 0 5 -6 17 -13 27 -12 16 -14 16 -35 -2 -21 -19 -31 -39 -13 -28
5 3 11 -4 14 -15 4 -15 2 -19 -9 -15 -8 3 -14 1 -14 -5 0 -6 8 -9 18 -7 9 2
16 11 14 20 -1 8 5 22 14 29 15 12 16 11 10 -9 -6 -17 -4 -23 6 -21 26 3 39
-1 33 -11 -4 -6 -9 -9 -13 -6 -4 2 -16 0 -27 -5 l-20 -9 20 3 c13 1 25 -6 33
-21 17 -34 15 -41 -6 -17 -9 11 -26 22 -37 23 -14 3 -9 -4 14 -20 34 -23 47
-53 31 -73 -9 -11 13 -49 23 -38 4 3 -1 12 -10 18 -15 11 -15 13 5 24 14 7 23
8 27 1 3 -5 -1 -10 -10 -10 -9 0 -13 -5 -10 -10 4 -6 11 -7 18 -3 6 3 -2 -10
-18 -31 -21 -27 -30 -34 -36 -24 -5 7 -6 22 -4 33 3 11 2 14 -1 6 -5 -11 -8
-11 -15 0 -4 7 -11 10 -16 6 -4 -5 -1 -12 6 -17 8 -4 11 -15 8 -25 -4 -9 -3
-14 3 -10 6 3 10 -1 10 -9 0 -9 -7 -16 -15 -16 -18 0 -19 -9 -4 -30 9 -13 10
-13 6 2 -4 11 0 15 11 13 10 -1 16 -10 15 -22 -2 -17 3 -20 27 -18 17 1 33 -2
37 -8 3 -6 1 -7 -5 -3 -7 4 -12 1 -12 -6 0 -10 -2 -10 -9 1 -5 8 -11 9 -15 3
-3 -6 -2 -13 4 -17 5 -3 10 -13 10 -21 0 -8 -5 -12 -10 -9 -6 4 -7 12 -4 18 4
7 3 9 -1 4 -5 -4 -9 -16 -10 -26 -1 -14 4 -18 17 -16 10 2 16 0 13 -6 -4 -5
-11 -7 -16 -4 -5 4 -9 2 -9 -4 0 -5 3 -11 8 -14 4 -2 1 -2 -6 0 -9 2 -11 -3
-7 -17 4 -14 2 -20 -9 -20 -11 0 -13 -7 -10 -27 3 -15 4 -25 2 -23 -2 3 -10
14 -18 24 -8 11 -10 17 -3 13 8 -5 11 -1 8 13 -2 11 1 20 7 20 5 0 8 6 5 13
-3 8 -1 20 3 27 5 8 4 22 -1 32 -7 14 -6 18 6 18 9 0 13 5 10 10 -5 8 -11 8
-20 0 -9 -7 -16 -6 -25 5 -9 10 -9 15 -1 15 6 0 11 -5 11 -11 0 -5 4 -8 10 -4
16 10 1 30 -26 31 -24 2 -24 1 -9 -22 8 -13 12 -24 9 -24 -9 0 -53 48 -54 58
0 4 -9 8 -20 8 -11 1 -17 -2 -14 -7 2 -4 11 -6 19 -3 10 4 13 0 10 -15 -3 -15
0 -18 12 -14 11 4 14 2 11 -8 -3 -8 -15 -13 -29 -12 -22 2 -22 2 -4 -6 12 -5
25 -5 33 1 6 6 12 7 12 2 -1 -14 -26 -44 -32 -38 -4 3 -9 0 -14 -7 -4 -8 -3
-10 4 -5 17 10 15 -10 -3 -28 -8 -8 -15 -22 -15 -31 0 -12 -4 -14 -19 -5 -28
14 -38 12 -16 -3 12 -10 14 -16 7 -21 -17 -10 -15 -39 1 -33 8 3 14 0 14 -7 0
-7 -6 -13 -14 -13 -7 0 -13 5 -13 10 0 15 -14 -1 -16 -18 -2 -16 8 -20 20 -8
4 5 13 8 19 8 7 0 13 10 15 23 2 12 8 22 13 22 5 0 9 5 9 11 0 5 -4 7 -10 4
-5 -3 -10 -1 -10 4 0 6 4 11 10 11 5 0 7 7 3 16 -4 12 1 15 23 12 20 -2 34
-12 47 -36 l18 -33 -28 -34 c-15 -18 -35 -34 -42 -34 -12 -1 -12 2 -3 11 7 7
12 17 12 23 0 5 -5 2 -11 -8 -5 -9 -15 -17 -22 -17 -8 0 -9 3 -1 8 6 4 14 15
17 26 6 16 10 16 24 5 14 -12 16 -12 8 0 -6 11 -4 13 9 8 11 -5 15 -3 10 5 -5
7 -2 9 7 4 8 -4 6 -1 -3 7 -10 8 -15 17 -11 20 3 4 1 7 -6 7 -8 0 -11 -6 -7
-16 3 -8 2 -12 -4 -9 -14 9 -13 35 2 35 6 0 9 2 6 5 -9 9 -38 -6 -32 -16 3 -6
0 -16 -6 -24 -7 -8 -10 -15 -6 -15 4 0 0 -10 -9 -23 -8 -13 -12 -27 -8 -30 3
-4 0 -7 -8 -7 -8 0 -4 -6 9 -16 12 -8 22 -22 22 -30 0 -8 5 -12 11 -9 7 5 2
16 -12 31 -22 23 -14 35 8 13 8 -8 15 -6 25 8 7 10 25 29 40 42 23 20 26 21
24 5 -2 -11 -8 -19 -14 -19 -7 0 -12 -3 -12 -7 0 -5 0 -13 0 -19 0 -5 5 -7 12
-3 7 5 8 3 2 -7 -5 -8 -9 -18 -9 -24 0 -5 -10 -10 -21 -11 -34 -2 -47 -13 -33
-30 10 -12 8 -13 -7 -8 -10 4 -16 4 -12 -1 12 -13 -11 -45 -27 -39 -23 9 -18
24 8 24 17 0 19 2 7 9 -8 6 -18 7 -22 5 -4 -3 -5 2 -1 11 4 13 8 14 14 4 4 -8
11 -10 16 -6 4 5 1 12 -7 17 -8 6 -11 10 -6 10 12 0 -14 30 -27 30 -6 0 -3 -6
8 -13 12 -10 14 -16 7 -21 -7 -4 -12 -1 -12 6 0 7 -9 2 -20 -12 -11 -14 -18
-30 -15 -37 5 -15 -19 -35 -30 -25 -5 4 -5 1 -1 -5 9 -17 48 7 41 25 -3 7 0
10 5 7 6 -3 10 -13 10 -21 0 -8 6 -17 14 -20 8 -3 14 -14 13 -25 -1 -20 -17
-27 -17 -8 0 5 -4 8 -10 4 -5 -3 -7 -13 -4 -23 4 -13 3 -14 -4 -4 -7 10 -12 5
-23 -20 -8 -18 -13 -35 -13 -38 1 -3 -9 -16 -21 -29 -15 -15 -25 -19 -30 -12
-3 6 -1 10 6 9 6 -2 13 2 15 7 2 6 -5 11 -16 12 -11 1 -20 -4 -20 -13 0 -8 -5
-14 -11 -14 -5 0 -8 4 -5 8 2 4 -4 8 -15 8 -18 0 -19 -2 -4 -12 14 -10 14 -15
3 -33 -7 -12 -17 -21 -22 -21 -5 0 -1 9 9 20 10 11 14 20 8 20 -17 0 -50 -54
-49 -81 1 -18 -3 -25 -11 -22 -7 3 -10 10 -6 16 3 6 1 7 -5 3 -9 -5 -9 -13 -2
-27 6 -11 15 -17 21 -14 5 4 9 2 9 -3 0 -6 -7 -13 -16 -16 -8 -3 -12 -2 -9 3
3 5 1 12 -4 15 -5 4 -13 2 -16 -4 -9 -15 14 -41 29 -33 6 3 5 0 -3 -8 -10 -11
-15 -11 -18 -1 -7 19 -31 14 -43 -8 -6 -11 -7 -20 -3 -21 4 0 -2 -4 -14 -9
-23 -9 -32 -40 -13 -40 6 0 9 5 8 11 -2 6 4 14 12 16 12 4 12 3 1 -5 -10 -7
-10 -11 -1 -17 6 -4 18 1 26 11 14 18 14 18 4 -3 -8 -17 -18 -22 -45 -19 -23
1 -32 -1 -26 -8 6 -7 4 -19 -5 -30 -17 -24 -18 -45 -1 -41 38 9 56 18 52 25
-8 14 24 5 38 -10 10 -12 9 -12 -5 -1 -10 7 -18 11 -18 7 0 -16 -5 -24 -41
-68 -27 -31 -35 -48 -27 -51 8 -3 6 -6 -4 -6 -10 -1 -18 -7 -18 -14 0 -8 -9
-22 -20 -32 -11 -10 -20 -24 -20 -32 0 -7 -5 -13 -11 -13 -5 0 -7 -4 -4 -10 3
-6 -1 -7 -9 -4 -12 4 -16 0 -16 -15 0 -12 -7 -24 -15 -27 -8 -4 -15 -11 -15
-16 0 -6 -13 -22 -30 -38 -16 -15 -26 -30 -23 -34 3 -3 -1 -6 -10 -6 -15 0
-87 -66 -87 -80 0 -3 -13 -14 -30 -23 -16 -10 -30 -14 -30 -10 0 5 -9 14 -20
21 -11 7 -19 9 -18 5 2 -5 -1 -9 -7 -11 -19 -6 -54 -45 -49 -53 3 -5 0 -9 -7
-9 -8 0 -8 -4 1 -15 9 -10 9 -15 1 -15 -6 0 -11 -7 -11 -15 0 -8 -4 -14 -9
-12 -5 1 -23 -10 -40 -26 -17 -15 -49 -34 -71 -43 -22 -9 -40 -21 -40 -28 0
-6 -5 -4 -10 4 -6 10 -10 11 -10 3 0 -7 -6 -13 -14 -13 -8 0 -30 -15 -50 -34
-19 -19 -36 -30 -38 -25 -2 5 -16 2 -31 -6 -15 -8 -25 -10 -22 -5 3 4 -10 7
-30 6 -19 -2 -32 1 -29 5 3 5 -2 9 -11 9 -9 0 -13 -4 -10 -10 9 -14 -8 -12
-25 3 -8 6 -6 1 5 -13 11 -14 16 -22 11 -18 -5 4 -15 3 -23 -4 -11 -8 -17 -8
-26 2 -9 9 -9 11 0 6 6 -3 14 -2 17 3 4 5 -2 8 -11 7 -10 -2 -20 -11 -22 -21
-2 -10 -8 -24 -15 -30 -19 -18 -90 -49 -114 -50 -13 0 -27 -7 -32 -15 -6 -8
-10 -10 -10 -5 0 6 -24 12 -52 13 -29 1 -75 4 -103 6 -28 3 -55 0 -62 -6 -10
-8 -12 -7 -8 3 4 10 -5 15 -34 16 -36 2 -39 0 -36 -19 3 -11 3 -19 1 -17 -3 2
-5 9 -6 14 -1 6 -6 16 -12 23 -8 10 -14 9 -24 -5 -10 -13 -14 -14 -12 -3 3 12
-16 14 -111 12 -62 -1 -119 -6 -125 -11 -7 -6 -25 -8 -40 -5 -20 3 -26 1 -20
-8 5 -10 4 -10 -6 -1 -11 10 -17 10 -29 0 -12 -10 -13 -9 -7 1 5 9 3 13 -5 11
-8 -1 -25 1 -39 4 -14 4 -34 8 -45 10 -11 1 -26 7 -34 11 -10 6 -12 5 -7 -2 4
-7 2 -12 -3 -12 -6 0 -11 5 -11 11 0 6 -8 3 -17 -8 -10 -10 -15 -14 -10 -9 13
17 8 22 -25 24 -17 2 -37 7 -43 12 -7 5 -16 6 -20 2 -5 -4 -5 -2 -1 5 7 12
-51 63 -72 63 -7 0 -12 5 -12 11 0 5 -4 8 -9 4 -5 -3 -17 2 -25 11 -12 12 -16
12 -17 2 0 -10 -2 -10 -6 0 -2 6 -9 10 -14 6 -5 -3 -8 0 -7 8 2 7 -5 12 -14
12 -10 -1 -16 2 -13 6 5 7 -26 23 -47 25 -3 0 -10 4 -15 9 -5 5 -2 6 7 2 8 -4
6 0 -5 8 -47 37 -69 51 -79 51 -6 0 -17 8 -25 18 -7 10 -19 16 -27 13 -8 -3
-13 0 -11 6 1 6 -4 13 -12 16 -9 3 -11 0 -6 -8 5 -9 4 -11 -4 -6 -6 4 -9 11
-6 16 3 5 -18 25 -47 44 -29 19 -96 79 -149 133 -52 54 -135 134 -184 178 -50
44 -94 85 -100 90 -29 27 -58 82 -90 167 -20 51 -40 102 -45 113 -26 57 -60
138 -60 145 0 5 -15 41 -34 82 -33 73 -79 184 -83 203 -1 6 -4 21 -7 35 -7 30
-14 65 -21 105 -3 17 -10 46 -15 65 -16 59 -27 133 -29 193 -1 28 -4 36 -14
31 -9 -6 -9 -5 0 7 7 9 11 25 8 37 -2 12 0 22 5 22 4 0 6 9 3 20 -3 11 -10 20
-17 20 -8 0 -8 3 0 8 18 12 26 45 12 54 -9 5 -8 8 6 8 11 0 17 3 14 6 -4 3 -2
20 4 37 5 18 11 70 13 117 3 86 6 111 15 120 3 3 36 68 74 145 38 77 84 161
101 187 32 46 165 310 165 326 0 14 129 141 224 220 87 72 182 138 277 191 26
14 57 34 70 44 120 89 274 170 384 202 119 36 195 56 220 60 11 2 63 12 115
23 52 11 113 23 135 26 22 3 51 8 65 11 14 2 50 7 80 10 30 4 75 10 100 14 43
7 139 5 190 -4z m1435 -826 c-4 -5 -12 -9 -18 -8 -9 0 -8 2 1 6 6 2 9 10 6 15
-4 7 -2 8 5 4 6 -4 9 -12 6 -17z m-271 -87 c3 -5 -1 -9 -9 -9 -8 0 -12 4 -9 9
3 4 7 8 9 8 2 0 6 -4 9 -8z m246 4 c0 -3 -4 -8 -10 -11 -5 -3 -10 -1 -10 4 0
6 5 11 10 11 6 0 10 -2 10 -4z m11 -19 c-10 -9 -11 -8 -5 6 3 10 9 15 12 12 3
-3 0 -11 -7 -18z m-305 -56 c1 -6 0 -7 -3 -1 -2 5 -9 8 -13 5 -5 -3 -11 -1
-14 4 -4 5 2 8 11 7 9 -2 18 -8 19 -15z m268 3 c3 -8 2 -12 -4 -9 -6 3 -10 10
-10 16 0 14 7 11 14 -7z m-314 -18 c0 -2 -8 -10 -17 -17 -16 -13 -17 -12 -4 4
13 16 21 21 21 13z m357 -12 c-3 -3 -12 -4 -19 -1 -8 3 -5 6 6 6 11 1 17 -2
13 -5z m104 -112 c-32 -22 -57 -26 -40 -6 6 7 14 12 18 10 4 -3 13 -1 21 5 26
15 26 9 1 -9z m84 -1 c-3 -2 1 -11 8 -19 9 -13 9 -14 0 -8 -7 4 -13 2 -13 -3
0 -6 6 -11 13 -12 9 0 9 -2 -1 -6 -6 -2 -10 -8 -8 -12 3 -4 -1 -8 -9 -8 -8 0
-12 4 -9 8 2 4 -8 17 -22 28 -15 12 -24 25 -19 29 4 4 10 1 12 -6 3 -6 10 -9
15 -6 6 4 8 2 4 -4 -3 -6 -2 -13 3 -16 5 -3 11 1 15 9 3 8 -3 19 -12 24 -15 9
-14 10 5 8 12 0 20 -3 18 -6z m-241 -16 c20 -15 18 -25 -6 -29 -7 -1 -19 -5
-26 -10 -11 -7 -12 -4 -4 10 5 11 7 25 5 32 -6 16 7 15 31 -3z m107 -42 c13
-16 12 -17 -3 -4 -17 13 -22 21 -14 21 2 0 10 -8 17 -17z m164 -13 c3 -5 1
-10 -4 -10 -6 0 -11 5 -11 10 0 6 2 10 4 10 3 0 8 -4 11 -10z m-142 -29 c5
-19 -15 -23 -30 -6 -4 4 -2 5 5 1 7 -4 12 -1 12 8 0 22 7 20 13 -3z m-100 -55
c3 -8 0 -17 -7 -19 -10 -4 -12 1 -9 14 6 23 9 24 16 5z m111 -2 c9 -24 2 -26
-12 -4 -7 11 -8 20 -3 20 5 0 12 -7 15 -16z m-384 -34 c0 -5 -2 -10 -4 -10 -3
0 -8 5 -11 10 -3 6 -1 10 4 10 6 0 11 -4 11 -10z m454 -25 c-4 -8 -8 -15 -10
-15 -2 0 -4 7 -4 15 0 8 4 15 10 15 5 0 7 -7 4 -15z m-304 0 c0 -2 -6 -8 -13
-14 -10 -8 -14 -7 -14 2 0 8 6 14 14 14 7 0 13 -1 13 -2z m365 -58 c-2 -23
-35 -33 -35 -11 0 9 5 12 12 8 7 -5 9 -2 6 8 -4 8 -1 15 6 15 7 0 12 -9 11
-20z m62 -4 c-4 -3 0 -15 10 -25 9 -11 11 -18 5 -18 -7 0 -12 -4 -12 -10 0 -5
5 -9 11 -7 6 1 13 -6 14 -15 4 -25 -20 -11 -34 19 -11 24 -13 24 -30 9 -10 -9
-22 -16 -27 -16 -5 0 2 9 16 20 18 13 28 16 37 8 9 -7 13 -7 13 0 0 6 -5 14
-10 17 -10 6 -5 25 7 25 4 0 3 -3 0 -7z m-639 -61 c-11 -13 -10 -15 5 -9 11 4
16 3 12 -3 -3 -6 -13 -10 -21 -10 -8 0 -14 -4 -14 -10 0 -5 -5 -10 -11 -10 -5
0 -3 10 5 22 19 26 21 42 4 32 -7 -4 -8 -3 -4 4 4 6 13 9 22 5 12 -4 12 -8 2
-21z m176 6 c-4 -6 -10 -5 -16 3 -8 11 -9 10 -4 -3 3 -10 2 -18 -3 -18 -15 0
-21 13 -10 26 12 15 42 7 33 -8z m15 -35 c6 -10 11 -13 11 -8 0 6 9 11 20 11
23 0 22 -21 -1 -22 -8 0 -27 -6 -42 -12 -16 -7 -33 -10 -38 -6 -5 3 -16 -1
-24 -10 -22 -22 -18 -32 5 -11 12 11 20 13 20 6 0 -7 5 -9 12 -5 8 5 9 2 5 -9
-6 -16 8 -31 28 -32 6 0 10 -12 9 -25 -1 -18 4 -26 17 -26 10 0 16 3 13 7 -2
4 2 10 8 13 7 3 3 3 -9 0 -18 -4 -22 -2 -17 10 8 22 37 5 39 -23 1 -17 -3 -21
-24 -19 -16 2 -25 -2 -24 -9 2 -6 -6 -11 -16 -10 -16 1 -18 5 -9 20 5 10 7 21
4 24 -3 4 -1 11 4 18 7 8 5 12 -5 12 -7 0 -13 -5 -12 -10 1 -5 -4 -12 -11 -14
-14 -6 -12 18 3 29 6 5 3 8 -7 8 -9 0 -20 -4 -23 -10 -3 -5 -1 -10 5 -10 6 0
8 -5 5 -10 -5 -8 -12 -7 -22 2 -13 11 -12 14 7 30 12 10 18 18 14 18 -21 0
-63 -51 -57 -68 6 -15 5 -15 -10 -3 -26 21 -15 64 26 101 33 28 39 31 55 19
16 -13 16 -12 3 4 -13 16 -13 20 0 28 20 13 27 11 38 -8z m-261 -125 c-7 -13
-12 -26 -11 -29 1 -3 -4 -6 -12 -6 -9 0 -7 9 8 29 25 34 32 37 15 6z m177 -33
c-11 -8 -27 -15 -36 -15 -9 0 -19 -3 -22 -6 -9 -9 12 -46 22 -39 5 3 11 -2 14
-10 5 -11 1 -12 -18 -5 -19 7 -25 6 -25 -4 0 -8 10 -14 23 -13 12 0 30 -3 40
-7 11 -5 17 -4 17 4 0 6 -4 8 -10 5 -9 -5 -12 1 -9 21 0 4 -5 11 -13 16 -9 6
-5 7 12 3 22 -5 23 -4 7 5 -13 9 -22 9 -31 1 -10 -9 -15 -8 -20 4 -5 15 13 20
54 16 12 -2 13 0 1 7 -11 8 -9 11 8 17 12 3 19 10 17 14 -3 4 4 7 14 7 16 0
15 -3 -7 -24 -14 -13 -22 -29 -19 -38 3 -8 -1 -17 -10 -21 -12 -5 -11 -8 6
-20 11 -8 18 -18 15 -23 -3 -5 2 -16 11 -24 9 -9 11 -16 4 -16 -6 0 -8 -5 -4
-12 4 -7 3 -8 -5 -4 -6 4 -9 11 -6 16 8 13 -21 31 -40 23 -12 -4 -16 -3 -12 4
4 6 0 14 -9 17 -9 3 -12 2 -9 -5 4 -5 2 -15 -3 -22 -5 -7 -8 -20 -7 -29 2 -10
-2 -18 -8 -18 -7 0 -1 -9 13 -20 26 -21 21 -27 -10 -10 -13 7 -17 19 -14 42 1
18 3 37 3 41 1 5 6 5 13 1 7 -4 8 -3 4 4 -4 6 -13 9 -21 6 -8 -4 -12 -11 -9
-16 4 -6 1 -8 -7 -6 -8 3 -13 14 -11 24 2 11 -1 15 -5 9 -4 -5 -17 -12 -27
-13 -16 -3 -18 -1 -8 10 9 11 9 17 0 26 -8 8 -7 13 4 17 10 4 14 14 11 26 -3
10 -9 17 -13 14 -4 -2 -15 1 -24 8 -14 10 -13 12 13 12 16 1 27 -3 25 -7 -3
-4 0 -8 5 -8 6 0 11 7 11 16 0 11 5 14 18 9 32 -13 62 -12 73 1 9 11 8 14 0
14 -7 0 -9 5 -5 11 4 7 11 6 22 -5 15 -14 14 -17 -3 -31z m-220 15 c-3 -5 -12
-10 -18 -10 -7 0 -6 4 3 10 19 12 23 12 15 0z m28 -75 c-22 -16 -38 -8 -23 10
6 8 18 11 26 8 12 -4 12 -8 -3 -18z m57 15 c0 -6 -7 -13 -15 -16 -8 -4 -15
-14 -15 -23 0 -13 2 -13 9 -2 5 8 11 9 15 3 8 -14 -11 -25 -26 -16 -7 5 -8 3
-3 -6 6 -9 4 -11 -6 -5 -12 8 -12 6 0 -8 15 -18 26 -23 16 -7 -3 6 -1 10 4 10
6 0 11 -2 11 -4 0 -2 3 -11 6 -19 8 -22 -25 -15 -42 8 -8 10 -15 17 -17 14 -1
-2 -9 -13 -17 -23 -14 -18 -13 -18 10 -12 20 6 22 5 10 -4 -12 -9 -12 -10 5
-6 16 5 21 1 22 -15 2 -16 -1 -18 -12 -9 -8 6 -19 9 -25 5 -5 -3 -10 -1 -10 5
0 6 -5 8 -10 5 -6 -3 -8 -18 -6 -31 3 -17 1 -24 -7 -21 -7 2 -11 12 -9 21 2
10 -2 24 -9 32 -8 10 -8 14 0 14 6 0 11 -5 11 -11 0 -5 5 -7 11 -3 7 4 7 10 1
16 -6 6 -8 17 -5 24 3 8 0 14 -6 14 -8 0 -9 6 -3 18 5 9 7 24 5 32 -4 13 -3
13 5 1 6 -8 8 -20 5 -27 -2 -7 0 -21 6 -31 10 -17 10 -17 11 0 0 9 8 17 18 17
15 0 15 2 2 11 -12 9 -12 10 4 5 13 -5 17 -2 13 8 -4 9 2 17 14 21 10 4 17 11
14 16 -4 5 -1 9 4 9 6 0 11 -5 11 -10z m230 -24 c0 -3 -4 -8 -10 -11 -5 -3
-10 -1 -10 4 0 6 5 11 10 11 6 0 10 -2 10 -4z m404 -19 c-11 -5 -20 -11 -22
-12 -1 -1 2 -14 7 -28 7 -17 7 -28 0 -32 -5 -4 -9 -3 -8 2 1 4 1 17 0 28 -2
19 -2 19 -15 2 -12 -16 -14 -16 -20 -2 -3 9 -2 13 4 10 6 -3 11 -1 11 4 1 6 2
17 3 24 1 6 10 11 20 9 11 -2 15 1 11 7 -4 7 0 8 11 4 15 -5 14 -7 -2 -16z
m59 3 c-3 -12 -8 -19 -11 -16 -5 6 5 36 12 36 2 0 2 -9 -1 -20z m-198 -9 c-3
-6 -11 -11 -17 -11 -6 0 -6 6 2 15 14 17 26 13 15 -4z m157 -8 c-6 -2 -10 -9
-7 -13 3 -5 1 -11 -4 -14 -7 -5 -8 11 -2 32 1 1 7 2 14 1 9 0 9 -2 -1 -6z
m-782 -23 c6 -11 9 -20 8 -20 -2 0 -11 9 -21 20 -9 11 -13 20 -7 20 5 0 14 -9
20 -20z m165 -31 c-5 -24 12 -25 18 -1 4 14 5 14 6 1 0 -9 -8 -26 -19 -39 -17
-19 -23 -21 -33 -10 -10 10 -9 11 2 5 10 -6 12 -4 6 5 -5 9 -4 11 3 6 7 -4 12
-2 12 4 0 6 -8 9 -17 6 -10 -3 -25 -1 -33 4 -8 5 -12 10 -7 11 4 1 10 2 15 3
4 1 16 7 27 13 18 11 18 12 2 13 -10 0 -15 5 -12 10 10 17 34 -8 30 -31z m662
26 c4 -4 3 -5 -4 -2 -6 4 -13 2 -15 -5 -3 -8 -6 -6 -10 4 -7 17 15 19 29 3z
m-892 -27 c5 4 5 2 1 -5 -3 -6 -15 -10 -26 -8 -11 2 -22 0 -25 -4 -7 -12 22
-34 34 -26 7 3 8 0 5 -9 -6 -16 -24 -22 -24 -8 0 4 -9 8 -21 9 -15 1 -18 -1
-10 -10 12 -16 75 -22 66 -7 -4 6 -3 10 2 9 20 -3 24 2 13 16 -10 13 -11 18
-1 28 10 9 11 8 5 -8 -7 -18 -6 -18 9 -6 11 9 17 10 17 2 0 -6 -5 -11 -11 -11
-5 0 -7 -5 -4 -10 5 -8 11 -7 21 1 7 6 11 16 7 22 -3 6 -1 7 6 3 6 -4 8 -12 5
-18 -4 -6 6 -22 22 -35 16 -13 22 -22 14 -20 -8 2 -12 2 -9 0 11 -7 -15 -53
-28 -49 -6 3 -16 -1 -21 -7 -11 -14 -12 -48 -1 -41 5 2 6 11 2 19 -3 9 1 15
10 15 18 0 11 -40 -7 -40 -6 0 -3 -5 7 -11 9 -6 15 -14 12 -19 -3 -5 -1 -11 5
-15 5 -3 10 1 10 9 0 9 5 16 11 16 5 0 8 -4 5 -8 -2 -4 -1 -14 3 -21 6 -9 11
-10 15 -2 4 6 2 11 -4 11 -6 0 -8 5 -5 10 5 8 12 7 23 -2 10 -7 14 -8 9 -3 -4
4 0 17 10 27 9 10 17 28 18 41 1 12 6 20 11 17 5 -3 8 -9 6 -15 -2 -5 2 -4 10
3 11 11 10 14 -1 21 -11 7 -10 11 6 21 19 12 19 13 -6 39 -14 14 -30 24 -35
23 -4 -1 -15 3 -24 10 -12 10 -14 10 -8 1 4 -8 2 -13 -7 -13 -7 0 -14 6 -14
13 0 15 34 20 43 6 4 -6 11 -6 20 2 8 6 14 8 14 3 0 -5 10 -20 21 -34 11 -14
17 -19 13 -11 -5 10 -3 12 5 6 7 -4 11 -16 8 -26 -3 -10 -1 -22 5 -25 5 -3 0
-13 -11 -21 -12 -8 -19 -19 -15 -24 3 -5 2 -9 -3 -8 -20 3 -34 -2 -28 -11 3
-5 2 -10 -3 -10 -5 0 -15 -13 -22 -30 -7 -16 -16 -27 -21 -25 -10 7 -28 -26
-22 -42 2 -6 -4 -10 -14 -9 -10 2 -17 10 -15 20 2 9 -2 16 -8 16 -6 0 -9 4 -5
9 11 18 -16 23 -35 6 -14 -12 -20 -13 -26 -4 -4 8 -3 10 4 5 11 -7 17 6 13 27
-1 5 9 5 21 2 22 -7 23 -7 3 8 -20 15 -41 4 -29 -15 3 -4 0 -8 -5 -8 -15 0
-14 11 2 35 7 11 12 34 12 52 -1 33 13 47 40 37 18 -7 19 -3 3 31 -12 28 -25
33 -25 10 0 -8 4 -12 9 -9 4 3 8 1 8 -4 0 -16 -30 -23 -50 -12 -26 14 -30 13
-23 -7 4 -13 -1 -11 -15 6 -12 13 -22 20 -22 16 0 -4 -9 0 -21 11 -19 17 -19
19 -3 31 10 7 14 13 9 13 -4 0 0 9 10 20 12 14 22 17 30 10 6 -5 16 -6 20 -2z
m-3114 -31 c-10 -9 -11 -8 -5 6 3 10 9 15 12 12 3 -3 0 -11 -7 -18z m3946 -1
c4 -4 4 -6 -2 -5 -16 5 -65 -32 -65 -49 0 -27 -14 -2 -15 27 0 15 5 28 11 28
7 0 10 -6 7 -14 -4 -9 0 -11 11 -7 8 3 15 9 14 12 -2 21 22 26 39 8z m110 -1
c0 -8 -4 -15 -9 -15 -10 0 -11 14 -1 23 9 10 10 9 10 -8z m-53 -20 c-17 -26
-24 -31 -24 -16 0 10 28 41 36 41 2 0 -3 -11 -12 -25z m-719 -13 c-2 -3 6 -13
18 -24 12 -11 17 -17 11 -14 -11 5 -39 -41 -35 -58 1 -4 -5 -18 -13 -30 -11
-17 -23 -22 -48 -20 -18 1 -34 3 -35 3 -1 1 4 15 11 33 15 34 41 45 50 21 4
-9 2 -11 -6 -7 -7 4 -8 3 -4 -5 4 -6 2 -19 -5 -27 -10 -12 -9 -13 5 -8 21 8
42 44 25 44 -8 0 -8 4 1 15 7 8 9 15 4 15 -4 0 1 7 12 15 19 15 19 15 -1 9
-16 -5 -17 -4 -5 5 8 5 11 13 8 17 -4 3 -14 -1 -23 -10 -12 -12 -13 -16 -3
-16 8 -1 6 -6 -6 -15 -26 -19 -41 -8 -21 15 9 10 14 23 11 29 -3 5 -1 11 5 13
15 5 49 5 44 0z m721 -20 c-17 -16 -18 -16 -5 5 7 12 15 20 18 17 3 -2 -3 -12
-13 -22z m-31 -12 c-3 -4 0 -11 5 -13 6 -3 5 -4 -1 -3 -7 1 -13 10 -15 19 -1
9 2 15 7 11 5 -3 7 -9 4 -14z m74 6 c8 -10 9 -16 1 -21 -6 -4 -9 -1 -8 7 2 7
-3 12 -10 10 -8 -1 -11 2 -7 8 8 13 10 13 24 -4z m-22 -22 c-3 -3 -12 -4 -19
-1 -8 3 -5 6 6 6 11 1 17 -2 13 -5z m-47 -25 c17 -13 18 -17 5 -10 -33 17 -51
31 -40 31 6 0 21 -10 35 -21z m-13 -38 c-5 -2 -13 3 -18 10 -15 24 -10 30 9
12 10 -10 14 -20 9 -22z m68 19 c-3 -5 -1 -10 6 -10 7 0 10 -3 6 -6 -9 -9 -28
6 -22 17 4 5 8 9 11 9 3 0 2 -4 -1 -10z m-110 -10 c-3 -5 -1 -10 6 -10 7 0 10
-3 6 -6 -9 -9 -28 6 -22 17 4 5 8 9 11 9 3 0 2 -4 -1 -10z m-25 -50 c6 -11 8
-20 6 -20 -3 0 -10 9 -16 20 -6 11 -8 20 -6 20 3 0 10 -9 16 -20z m40 14 c0
-8 -19 -13 -24 -6 -3 5 1 9 9 9 8 0 15 -2 15 -3z m34 -2 c3 -5 -1 -9 -9 -9 -8
0 -12 4 -9 9 3 4 7 8 9 8 2 0 6 -4 9 -8z m-99 -42 c3 -5 1 -10 -4 -10 -6 0
-11 5 -11 10 0 6 2 10 4 10 3 0 8 -4 11 -10z m58 -27 c-3 -7 -6 -13 -8 -13 -2
0 -5 6 -8 13 -3 8 1 14 8 14 7 0 11 -6 8 -14z m-103 -77 c-5 -7 -11 -25 -14
-41 -2 -17 -5 -32 -6 -35 0 -3 -7 9 -15 25 -7 17 -14 24 -14 17 -1 -15 -21 -6
-21 9 0 6 5 7 10 4 6 -3 10 -1 10 4 0 6 -6 11 -12 11 -10 0 -10 2 0 9 8 4 13
12 12 17 -1 4 7 11 17 15 22 8 47 -19 33 -35z m90 28 c0 -8 -19 -13 -24 -6 -3
5 1 9 9 9 8 0 15 -2 15 -3z m-20 -80 c0 -8 -19 -13 -24 -6 -3 5 1 9 9 9 8 0
15 -2 15 -3z m-190 -44 c0 -5 -5 -10 -11 -10 -5 0 -7 5 -4 10 3 6 8 10 11 10
2 0 4 -4 4 -10z m260 4 c0 -8 -19 -13 -24 -6 -3 5 1 9 9 9 8 0 15 -2 15 -3z
m-206 -22 c3 -5 -1 -9 -9 -9 -8 0 -12 4 -9 9 3 4 7 8 9 8 2 0 6 -4 9 -8z m261
-72 c-3 -5 -12 -10 -18 -10 -7 0 -6 4 3 10 19 12 23 12 15 0z m-11 -32 c-3 -4
-9 -8 -15 -8 -5 0 -9 4 -9 8 0 5 7 9 15 9 8 0 12 -4 9 -9z m-317 -48 c-1 -12
-5 -16 -10 -11 -5 5 -6 14 -3 20 11 16 15 13 13 -9z m88 -77 c-8 -15 -23 -27
-34 -28 -16 -1 -18 2 -11 15 5 10 6 21 2 25 -4 4 4 5 18 3 17 -2 24 1 22 10
-1 8 2 11 7 8 6 -4 4 -17 -4 -33z m191 12 c-1 -8 -5 -17 -8 -21 -5 -4 -4 16 1
34 3 9 9 -1 7 -13z m-211 -65 c3 -4 -6 -7 -20 -5 -14 1 -28 -2 -31 -6 -5 -9
11 -13 30 -10 5 1 4 -5 -4 -13 -15 -19 -24 -21 -14 -4 5 8 2 9 -9 5 -22 -8
-31 8 -14 25 16 16 54 21 62 8z m-88 -20 c-2 -11 -6 -22 -9 -26 -4 -3 -5 2 -3
13 2 10 4 21 4 26 1 4 3 7 6 7 3 0 4 -9 2 -20z m-7 -50 c8 -5 11 -10 5 -10 -5
0 -17 5 -25 10 -8 5 -10 10 -5 10 6 0 17 -5 25 -10z m-76 -36 c4 -10 2 -13 -6
-8 -8 5 -9 2 -5 -9 3 -9 1 -19 -5 -23 -7 -5 -8 -2 -3 6 5 8 3 11 -6 8 -8 -3
-13 -11 -11 -17 1 -7 -2 -10 -8 -6 -5 3 -10 2 -10 -4 0 -6 -7 -8 -16 -4 -15 6
-15 4 0 -19 14 -21 14 -25 1 -25 -8 0 -12 4 -9 9 3 4 2 14 -3 21 -12 19 -12
36 -1 44 7 3 8 1 4 -5 -16 -26 23 -10 45 18 28 35 25 34 33 14z m73 -10 c-3
-3 -12 -4 -19 -1 -8 3 -5 6 6 6 11 1 17 -2 13 -5z m-27 -26 c0 -6 -3 -8 -7 -5
-3 4 -16 -1 -27 -10 -21 -18 -21 -18 -2 5 21 24 36 29 36 10z m-52 -53 c-3 -3
-9 2 -12 12 -6 14 -5 15 5 6 7 -7 10 -15 7 -18z m52 15 c0 -5 -2 -10 -4 -10
-3 0 -8 5 -11 10 -3 6 -1 10 4 10 6 0 11 -4 11 -10z m-15 -20 c3 -6 -1 -7 -9
-4 -18 7 -21 14 -7 14 6 0 13 -4 16 -10z m125 -22 c0 -5 -7 -3 -15 6 -8 8 -15
18 -15 22 0 3 7 1 15 -6 8 -7 15 -17 15 -22z m-30 -18 c0 -5 -2 -10 -4 -10 -3
0 -8 5 -11 10 -3 6 -1 10 4 10 6 0 11 -4 11 -10z m-146 -18 c3 -5 -1 -9 -9 -9
-8 0 -12 4 -9 9 3 4 7 8 9 8 2 0 6 -4 9 -8z m-96 -47 c-3 -3 -9 2 -12 12 -6
14 -5 15 5 6 7 -7 10 -15 7 -18z m102 11 c0 -2 -7 -7 -16 -10 -8 -3 -12 -2 -9
4 6 10 25 14 25 6z m-166 -75 c3 -5 -1 -11 -9 -14 -9 -4 -12 -1 -8 9 6 16 10
17 17 5z m56 -7 c0 -8 -19 -13 -24 -6 -3 5 1 9 9 9 8 0 15 -2 15 -3z m-90 -24
c0 -5 -5 -10 -11 -10 -5 0 -7 5 -4 10 3 6 8 10 11 10 2 0 4 -4 4 -10z m43
-128 c-10 -10 -20 -17 -22 -16 -6 5 20 34 30 34 5 0 1 -8 -8 -18z m-2784 -386
c1 -18 -1 -18 -24 4 -14 13 -23 26 -20 28 3 3 -1 12 -8 21 -6 9 2 4 20 -9 18
-14 32 -34 32 -44z m2353 27 c-6 -3 -9 -10 -5 -16 4 -8 1 -7 -9 1 -13 10 -16
9 -21 -9 -3 -12 -10 -18 -17 -14 -8 5 -6 13 6 26 9 10 20 16 25 14 4 -3 11 0
14 6 4 5 10 7 14 3 3 -4 0 -9 -7 -11z m-1998 -153 c-8 -8 -15 -5 -25 7 -13 17
-13 17 5 3 18 -14 19 -13 12 5 -6 16 -5 18 5 8 9 -9 10 -16 3 -23z m40 -30
c-6 -6 -10 -3 -10 10 0 13 4 16 10 10 7 -7 7 -13 0 -20z m66 -50 c0 -5 -2 -10
-4 -10 -3 0 -8 5 -11 10 -3 6 -1 10 4 10 6 0 11 -4 11 -10z m-25 -68 c-3 -3
-11 0 -18 7 -9 10 -8 11 6 5 10 -3 15 -9 12 -12z m184 -85 c0 -9 -2 -8 -6 1
-2 6 -10 9 -15 6 -7 -4 -8 -2 -4 5 9 13 26 5 25 -12z m534 3 c3 -11 1 -18 -4
-14 -5 3 -9 12 -9 20 0 20 7 17 13 -6z m-68 -31 c11 -16 1 -19 -13 -3 -7 8 -8
14 -3 14 5 0 13 -5 16 -11z m-455 -145 c0 -2 -9 -4 -20 -4 -11 0 -20 4 -20 9
0 5 9 7 20 4 11 -3 20 -7 20 -9z m1210 -34 c0 -5 -5 -10 -11 -10 -5 0 -7 5 -4
10 3 6 8 10 11 10 2 0 4 -4 4 -10z m-575 -30 c-3 -5 -12 -10 -18 -10 -7 0 -6
4 3 10 19 12 23 12 15 0z m-840 -30 c3 -5 1 -10 -4 -10 -6 0 -11 5 -11 10 0 6
2 10 4 10 3 0 8 -4 11 -10z m549 1 c3 -5 -2 -15 -12 -22 -15 -12 -16 -12 -5 2
7 9 10 19 6 22 -3 4 -4 7 0 7 3 0 8 -4 11 -9z m50 1 c3 -5 -1 -9 -9 -9 -8 0
-15 4 -15 9 0 4 4 8 9 8 6 0 12 -4 15 -8z m-494 -17 c5 3 10 4 10 1 0 -3 -10
-11 -22 -17 -13 -6 -20 -8 -16 -4 4 5 2 15 -5 24 -10 14 -10 14 5 3 9 -8 22
-11 28 -7z m120 -1 c0 -8 -19 -13 -24 -6 -3 5 1 9 9 9 8 0 15 -2 15 -3z m-72
-33 c-7 -2 -14 1 -16 8 -2 6 -9 8 -14 5 -7 -4 -8 -2 -4 4 5 9 12 8 27 -1 12
-7 15 -13 7 -16z m32 19 c8 -5 11 -12 8 -16 -4 -3 -14 1 -23 10 -18 17 -9 21
15 6z m404 2 c-7 -4 -11 -18 -10 -31 0 -13 -4 -26 -11 -28 -7 -3 -10 5 -9 20
4 30 14 47 29 47 9 0 9 -2 1 -8z m-184 -6 c0 -3 -7 -12 -16 -20 -9 -9 -11 -16
-4 -16 6 0 8 -5 4 -11 -4 -8 -9 -7 -15 2 -5 8 -2 20 8 31 16 18 23 22 23 14z
m83 -26 c4 0 6 4 3 9 -4 5 1 8 11 7 19 -3 28 -42 11 -52 -7 -4 -18 2 -26 14
-8 12 -20 22 -26 22 -6 0 -5 -4 3 -9 8 -5 11 -16 7 -26 -8 -22 -21 -11 -21 18
-1 12 -5 28 -9 36 -7 11 -3 10 15 -2 13 -9 27 -17 32 -17z m67 20 c0 -5 -5
-10 -11 -10 -5 0 -7 5 -4 10 3 6 8 10 11 10 2 0 4 -4 4 -10z m-254 -25 c14
-13 13 -15 -8 -11 -13 3 -24 5 -26 5 -5 1 9 21 14 21 3 0 12 -7 20 -15z m509
5 c-3 -5 -12 -10 -18 -10 -7 0 -6 4 3 10 19 12 23 12 15 0z m-260 -9 c3 -5 1
-12 -5 -16 -5 -3 -10 1 -10 9 0 18 6 21 15 7z m240 -21 c-3 -5 -12 -10 -18
-10 -7 0 -6 4 3 10 19 12 23 12 15 0z"/>
<path d="M3470 3330 c0 -5 7 -7 15 -4 8 4 15 8 15 10 0 2 -7 4 -15 4 -8 0 -15
-4 -15 -10z"/>
<path d="M3749 3313 c-13 -17 -13 -17 6 -3 11 8 22 16 24 17 2 2 0 3 -6 3 -6
0 -17 -8 -24 -17z"/>
<path d="M3601 3298 c-10 -18 -11 -20 0 -10 19 17 29 15 22 -5 -6 -16 -5 -16
10 -4 13 10 15 17 6 27 -16 19 -22 18 -38 -8z"/>
<path d="M3583 3206 c3 -7 0 -20 -6 -27 -10 -11 -9 -11 5 0 15 11 15 41 1 41
-3 0 -3 -6 0 -14z"/>
<path d="M3535 3110 c-3 -5 -1 -10 4 -10 6 0 11 5 11 10 0 6 -2 10 -4 10 -3 0
-8 -4 -11 -10z"/>
<path d="M3955 3099 c-4 -6 2 -13 14 -16 11 -3 18 -9 15 -14 -3 -5 2 -6 11 -3
13 5 12 9 -6 25 -26 22 -26 22 -34 8z"/>
<path d="M3269 2993 c-13 -16 -12 -17 4 -4 16 13 21 21 13 21 -2 0 -10 -8 -17
-17z"/>
<path d="M3825 2979 c-4 -6 -5 -12 -2 -15 2 -3 7 2 10 11 7 17 1 20 -8 4z"/>
<path d="M4020 2978 c23 -20 25 -42 3 -34 -14 6 -16 5 -5 -5 9 -10 15 -10 24
-1 9 9 16 8 30 -5 10 -9 18 -13 18 -9 0 4 9 2 20 -4 16 -9 20 -8 20 6 0 9 -6
14 -13 11 -14 -5 -54 19 -49 31 1 4 -6 7 -17 8 -10 1 -25 4 -32 8 -10 5 -10 4
1 -6z m50 -12 c0 -2 -7 -7 -16 -10 -8 -3 -12 -2 -9 4 6 10 25 14 25 6z"/>
<path d="M3830 2945 c-14 -8 -20 -15 -15 -15 6 0 4 -4 -4 -9 -8 -5 -9 -11 -3
-15 6 -3 13 3 17 14 3 11 11 20 16 20 6 0 8 -3 6 -7 -3 -5 7 -17 22 -28 20
-15 23 -15 12 -2 -16 20 -1 23 18 5 11 -11 11 -9 0 9 -7 12 -15 21 -18 21 -20
-2 -31 3 -26 12 8 13 5 12 -25 -5z"/>
<path d="M3930 2951 c0 -6 4 -13 10 -16 6 -3 7 1 4 9 -7 18 -14 21 -14 7z"/>
<path d="M3975 2927 c0 -20 -5 -31 -12 -29 -7 1 -12 -2 -10 -7 1 -5 -7 -17
-18 -26 -20 -16 -19 -16 3 -5 12 6 27 8 32 5 5 -3 12 0 16 6 4 8 3 9 -4 5 -13
-8 -16 6 -5 18 11 10 15 54 6 59 -5 3 -8 -9 -8 -26z"/>
<path d="M3663 2915 c0 -8 4 -12 9 -9 5 3 6 10 3 15 -9 13 -12 11 -12 -6z"/>
<path d="M3719 2913 c-13 -16 -12 -17 4 -4 16 13 21 21 13 21 -2 0 -10 -8 -17
-17z"/>
<path d="M3826 2895 c-3 -8 -1 -15 3 -15 5 0 12 6 14 13 4 10 6 10 6 0 1 -7 6
-13 12 -13 8 0 8 5 -1 15 -7 8 -16 15 -20 15 -4 0 -10 -7 -14 -15z"/>
<path d="M4032 2890 c-7 -12 -18 -18 -24 -14 -7 4 -8 3 -4 -5 6 -9 11 -9 23 0
12 11 13 8 7 -17 -4 -16 -4 -26 0 -23 6 6 19 79 13 79 -1 0 -8 -9 -15 -20z"/>
<path d="M3915 2890 c-3 -5 -1 -10 4 -10 6 0 11 5 11 10 0 6 -2 10 -4 10 -3 0
-8 -4 -11 -10z"/>
<path d="M3682 2851 c-11 -7 -11 -9 2 -14 10 -4 16 -1 16 8 0 17 -1 17 -18 6z"/>
<path d="M3948 2843 c7 -3 16 -2 19 1 4 3 -2 6 -13 5 -11 0 -14 -3 -6 -6z"/>
<path d="M3534 2818 c-14 -43 -14 -50 2 -37 8 6 12 14 9 17 -3 3 0 11 6 18 6
8 6 14 0 18 -5 4 -13 -4 -17 -16z"/>
<path d="M3914 2823 c2 -9 8 -19 14 -21 14 -4 15 0 6 22 -8 21 -23 20 -20 -1z"/>
<path d="M3974 2828 c-4 -6 -3 -8 4 -4 5 3 12 1 14 -6 5 -13 38 -21 38 -9 0
15 -49 31 -56 19z"/>
<path d="M3119 2813 c-13 -16 -12 -17 4 -4 9 7 17 15 17 17 0 8 -8 3 -21 -13z"/>
<path d="M3601 2821 c-10 -6 -9 -10 3 -14 8 -3 18 -2 21 3 8 13 -9 20 -24 11z"/>
<path d="M3953 2799 c-2 -23 3 -25 10 -4 4 8 3 16 -1 19 -4 3 -9 -4 -9 -15z"/>
<path d="M4235 2810 c-3 -5 -2 -10 4 -10 5 0 13 5 16 10 3 6 2 10 -4 10 -5 0
-13 -4 -16 -10z"/>
<path d="M3975 2790 c-3 -5 -1 -10 4 -10 6 0 11 5 11 10 0 6 -2 10 -4 10 -3 0
-8 -4 -11 -10z"/>
<path d="M3925 2760 c-3 -6 1 -7 9 -4 18 7 21 14 7 14 -6 0 -13 -4 -16 -10z"/>
<path d="M3998 2763 c7 -3 16 -2 19 1 4 3 -2 6 -13 5 -11 0 -14 -3 -6 -6z"/>
<path d="M3955 2750 c-16 -7 -17 -9 -3 -9 9 -1 20 4 23 9 7 11 7 11 -20 0z"/>
<path d="M4024 2749 c-10 -17 13 -36 27 -22 12 12 4 33 -11 33 -5 0 -12 -5
-16 -11z m26 -9 c0 -5 -4 -10 -10 -10 -5 0 -10 5 -10 10 0 6 5 10 10 10 6 0
10 -4 10 -10z"/>
<path d="M4072 2743 c1 -5 -6 -21 -17 -37 -24 -36 -28 -56 -9 -49 8 3 14 1 14
-5 0 -16 -26 -22 -39 -9 -7 7 -12 8 -11 2 5 -25 -2 -27 -27 -4 -15 13 -22 17
-15 8 10 -13 9 -19 -3 -29 -8 -7 -15 -9 -15 -5 0 5 -9 0 -20 -10 -17 -16 -20
-16 -20 -2 0 8 6 17 13 20 6 2 9 8 5 12 -12 13 -21 -2 -24 -41 -2 -21 1 -34 7
-32 6 2 11 8 11 13 0 21 20 33 46 29 18 -3 23 -2 13 5 -8 5 -9 11 -3 15 5 3
15 -1 22 -9 10 -12 16 -11 41 7 21 16 27 27 23 41 -4 12 -2 17 4 13 16 -10 25
13 12 29 -7 9 -8 15 0 20 13 8 13 25 0 25 -5 0 -9 -3 -8 -7z m8 -55 c0 -6 -3
-8 -7 -5 -3 4 -13 1 -21 -6 -13 -11 -14 -9 -2 10 14 22 30 22 30 1z"/>
<path d="M3910 2730 c0 -5 5 -10 11 -10 5 0 7 5 4 10 -3 6 -8 10 -11 10 -2 0
-4 -4 -4 -10z"/>
<path d="M4016 2707 c5 -14 2 -16 -12 -11 -16 5 -16 4 -4 -5 20 -14 39 4 21
22 -10 10 -11 9 -5 -6z"/>
<path d="M3930 2705 c0 -2 6 -8 13 -14 10 -8 14 -7 14 2 0 8 -6 14 -14 14 -7
0 -13 -1 -13 -2z"/>
<path d="M3931 2666 c7 -15 15 -23 17 -16 3 7 -3 19 -13 28 -15 16 -16 15 -4
-12z"/>
<path d="M3995 2660 c-3 -6 1 -7 9 -4 18 7 21 14 7 14 -6 0 -13 -4 -16 -10z"/>
<path d="M3885 2650 c-3 -5 -1 -10 4 -10 6 0 11 5 11 10 0 6 -2 10 -4 10 -3 0
-8 -4 -11 -10z"/>
<path d="M3825 2600 c-4 -6 1 -7 11 -3 14 5 16 3 10 -13 -5 -14 -4 -16 5 -7
12 12 5 33 -11 33 -5 0 -12 -4 -15 -10z"/>
<path d="M3997 2579 c12 -12 7 -42 -6 -35 -4 3 -13 0 -21 -6 -13 -8 -13 -9 1
-5 18 6 43 -28 33 -46 -4 -7 -3 -8 2 -4 16 15 12 95 -5 102 -12 5 -13 3 -4 -6z"/>
<path d="M3810 2571 c0 -5 7 -11 14 -14 10 -4 13 -1 9 9 -6 15 -23 19 -23 5z"/>
<path d="M3966 2572 c-3 -5 1 -9 9 -9 8 0 12 4 9 9 -3 4 -7 8 -9 8 -2 0 -6 -4
-9 -8z"/>
<path d="M3930 2530 c0 -5 5 -10 10 -10 6 0 10 5 10 10 0 6 -4 10 -10 10 -5 0
-10 -4 -10 -10z"/>
<path d="M4035 2519 c-4 -6 -5 -12 -2 -15 2 -3 7 2 10 11 7 17 1 20 -8 4z"/>
<path d="M3962 2511 c-7 -4 -11 -19 -10 -33 1 -15 6 -24 10 -22 4 3 8 0 8 -5
0 -6 -5 -11 -11 -11 -5 0 -7 -5 -3 -11 10 -17 25 12 18 35 -4 10 -2 16 3 13 5
-3 9 3 10 13 2 23 -8 32 -25 21z m10 -23 c-7 -7 -12 -8 -12 -2 0 14 12 26 19
19 2 -3 -1 -11 -7 -17z"/>
<path d="M3910 2503 c8 -3 19 -11 23 -17 6 -7 7 -6 4 4 -2 8 -12 16 -23 17
-13 2 -15 1 -4 -4z"/>
<path d="M3785 2490 c-4 -6 -1 -9 6 -8 6 2 14 -3 16 -9 3 -7 -2 -13 -11 -13
-8 0 -18 -4 -21 -10 -7 -12 23 -2 44 14 7 5 20 11 28 12 20 3 28 12 19 21 -4
4 -10 3 -14 -2 -10 -14 -42 -18 -42 -5 0 13 -17 13 -25 0z"/>
<path d="M4050 2490 c0 -5 5 -10 10 -10 6 0 10 5 10 10 0 6 -4 10 -10 10 -5 0
-10 -4 -10 -10z"/>
<path d="M4080 2486 c0 -2 8 -10 18 -17 15 -13 16 -12 3 4 -13 16 -21 21 -21
13z"/>
<path d="M3745 2463 c-13 -31 -14 -64 -2 -56 6 4 8 0 4 -10 -9 -23 14 -33 28
-13 11 15 13 15 19 1 3 -9 -1 -18 -9 -21 -8 -4 -12 -10 -9 -16 9 -14 33 24 26
41 -3 9 -1 12 6 7 6 -3 14 -1 17 5 5 7 15 3 30 -11 13 -12 28 -18 38 -14 10 3
17 1 17 -5 0 -6 5 -11 12 -11 6 0 8 3 5 7 -4 3 0 17 8 30 9 13 11 23 5 23 -5
0 -10 -5 -10 -11 0 -5 -4 -7 -10 -4 -6 4 -7 -1 -3 -12 6 -16 5 -16 -10 -5 -8
8 -13 21 -10 30 4 14 3 14 -5 3 -6 -8 -8 -20 -5 -28 7 -17 -5 -17 -22 1 -8 7
-11 17 -7 21 4 5 1 4 -7 0 -11 -6 -13 -4 -8 11 7 18 6 18 -8 -1 -9 -11 -17
-20 -18 -19 -1 0 -11 6 -23 12 -14 7 -24 8 -31 1 -7 -7 -12 -5 -16 5 -3 8 0
22 8 30 17 17 19 26 6 26 -5 0 -12 -8 -16 -17z m29 -67 c-3 -9 -10 -16 -15
-16 -6 0 -5 9 1 21 13 24 24 20 14 -5z"/>
<path d="M3895 2470 c-4 -6 -11 -8 -16 -5 -5 4 -6 -2 -2 -11 4 -11 8 -13 11
-6 2 7 9 9 14 6 7 -5 8 -2 3 6 -6 9 -1 10 16 5 19 -5 21 -4 9 4 -19 13 -27 14
-35 1z"/>
<path d="M4006 2464 c-11 -8 -16 -14 -10 -14 13 0 39 18 34 24 -3 2 -14 -2
-24 -10z"/>
<path d="M4068 2463 c10 -4 9 -9 -4 -24 -9 -10 -13 -19 -8 -19 12 0 34 36 27
44 -4 3 -11 6 -17 5 -6 0 -5 -3 2 -6z"/>
<path d="M3810 2444 c-17 -9 -20 -14 -9 -14 9 0 22 7 29 15 15 18 13 18 -20
-1z"/>
<path d="M3860 2440 c6 -11 13 -20 16 -20 2 0 0 9 -6 20 -6 11 -13 20 -16 20
-2 0 0 -9 6 -20z"/>
<path d="M4040 2449 c0 -5 -4 -8 -9 -5 -5 3 -15 -2 -22 -12 -12 -15 -12 -15 1
-5 8 6 19 11 25 11 5 0 11 5 13 11 2 6 1 11 -2 11 -3 0 -6 -5 -6 -11z"/>
<path d="M4095 2440 c-3 -5 -1 -10 4 -10 6 0 11 5 11 10 0 6 -2 10 -4 10 -3 0
-8 -4 -11 -10z"/>
<path d="M3910 2430 c0 -5 7 -7 15 -4 8 4 15 8 15 10 0 2 -7 4 -15 4 -8 0 -15
-4 -15 -10z"/>
<path d="M3980 2421 c0 -6 4 -13 10 -16 6 -3 7 1 4 9 -7 18 -14 21 -14 7z"/>
<path d="M4016 2405 c-4 -10 3 -19 17 -26 16 -7 23 -18 21 -32 -4 -33 -4 -33
-14 -17 -7 12 -9 10 -7 -7 0 -13 7 -25 15 -28 7 -2 10 0 7 5 -3 6 -3 16 2 23
17 27 12 48 -12 59 -19 9 -22 14 -14 25 7 8 8 13 1 13 -5 0 -13 -7 -16 -15z"/>
<path d="M3330 2398 c0 -4 4 -8 9 -8 6 0 12 4 15 8 3 5 -1 9 -9 9 -8 0 -15 -4
-15 -9z"/>
<path d="M3619 2359 c-24 -28 -45 -52 -47 -54 -9 -8 27 -12 39 -3 11 8 10 9
-4 4 -11 -4 -17 -2 -15 5 2 6 6 9 9 7 10 -5 39 24 33 33 -3 5 2 9 11 9 12 0
15 5 11 16 -4 11 -2 15 8 11 10 -4 13 -1 9 9 -3 7 -6 14 -7 14 -1 0 -22 -23
-47 -51z"/>
<path d="M3946 2383 c-6 -14 -5 -15 5 -6 7 7 10 15 7 18 -3 3 -9 -2 -12 -12z"/>
<path d="M3691 2373 c-1 -29 14 -37 30 -15 13 15 12 16 -3 4 -14 -11 -17 -10
-21 10 -4 22 -4 22 -6 1z"/>
<path d="M3820 2376 c0 -2 7 -6 15 -10 8 -3 15 -1 15 4 0 6 -7 10 -15 10 -8 0
-15 -2 -15 -4z"/>
<path d="M4115 2370 c-3 -5 -1 -10 4 -10 6 0 11 5 11 10 0 6 -2 10 -4 10 -3 0
-8 -4 -11 -10z"/>
<path d="M3290 2347 c0 -7 6 -19 13 -27 10 -12 9 -12 -5 -1 -14 11 -20 9 -38
-7 -16 -15 -18 -22 -9 -27 7 -5 10 -4 5 3 -7 12 29 27 43 17 5 -3 12 -1 16 5
4 6 10 8 15 5 4 -3 7 3 5 12 -2 10 -4 22 -4 27 -1 5 -9 2 -18 -5 -11 -10 -14
-10 -9 -1 4 6 2 12 -3 12 -6 0 -11 -6 -11 -13z"/>
<path d="M3721 2339 l-24 -20 25 5 c18 3 28 -1 32 -11 9 -22 7 -25 -6 -16 -23
14 -37 12 -31 -5 4 -10 -6 -4 -20 11 -15 15 -27 32 -27 38 0 5 -4 9 -10 9 -6
0 -5 -10 2 -25 6 -13 15 -22 19 -19 15 9 10 -13 -5 -25 -10 -8 -16 -8 -25 3
-9 11 -17 11 -36 2 -14 -6 -27 -17 -30 -24 -3 -8 8 -4 25 8 27 19 29 20 38 3
5 -10 7 -24 5 -30 -3 -7 0 -13 7 -13 6 0 9 4 6 8 -8 13 24 53 35 46 6 -3 3
-11 -8 -19 -15 -11 -15 -15 -4 -29 7 -9 19 -16 25 -16 7 0 6 3 -2 8 -9 7 -8
13 7 26 12 11 17 24 13 34 -5 15 -3 15 10 4 19 -15 31 -2 22 22 -5 13 -2 15
12 10 11 -4 16 -4 12 0 -5 6 -14 9 -48 15 -3 1 2 6 10 11 8 5 11 10 5 10 -5
-1 -21 -10 -34 -21z m-6 -79 c-10 -11 -21 -18 -23 -15 -3 3 3 12 14 20 27 20
30 18 9 -5z"/>
<path d="M3830 2330 c29 -41 35 -43 50 -15 7 13 17 22 22 19 4 -3 8 -1 8 5 0
22 -18 19 -28 -4 -7 -14 -16 -25 -22 -25 -14 0 -8 22 10 37 8 7 10 13 5 13 -6
0 -17 -6 -24 -12 -11 -10 -14 -10 -18 0 -3 6 -9 12 -15 12 -5 0 0 -13 12 -30z"/>
<path d="M3930 2340 c-8 -14 -8 -20 0 -20 6 0 8 -6 4 -12 -4 -7 -3 -10 1 -5 7
6 15 57 8 57 -1 0 -7 -9 -13 -20z"/>
<path d="M3998 2353 c7 -3 16 -2 19 1 4 3 -2 6 -13 5 -11 0 -14 -3 -6 -6z"/>
<path d="M663 2342 c-18 -11 1 -36 22 -28 9 3 15 11 13 18 -5 15 -20 20 -35
10z"/>
<path d="M3812 2300 c7 -11 19 -20 26 -20 8 0 12 -6 9 -12 -2 -7 -11 -11 -18
-10 -8 2 -11 1 -7 -3 4 -4 -6 -21 -22 -39 -17 -17 -30 -35 -30 -41 0 -5 5 -3
10 5 5 8 10 12 10 7 0 -4 12 1 27 10 15 10 28 16 29 13 1 -3 6 -2 9 2 4 4 -5
5 -20 2 -25 -4 -27 -3 -15 11 7 9 19 14 27 11 8 -3 11 -1 8 5 -4 5 -2 16 4 23
8 10 5 16 -14 24 -14 6 -25 16 -25 22 0 5 -5 10 -10 10 -6 0 -5 -8 2 -20z"/>
<path d="M3890 2305 c-13 -15 -6 -35 13 -35 7 0 6 4 -3 10 -8 5 -12 12 -8 15
3 4 16 -3 27 -14 11 -11 23 -17 25 -12 3 4 -6 14 -19 21 -13 7 -22 17 -19 22
9 13 -3 9 -16 -7z"/>
<path d="M3791 2290 c14 -31 19 -36 19 -24 0 6 -7 19 -16 30 -14 18 -14 18 -3
-6z"/>
<path d="M3960 2280 c6 -11 12 -20 14 -20 2 0 2 9 -1 20 -3 11 -9 20 -15 20
-5 0 -4 -9 2 -20z"/>
<path d="M3553 2271 c-9 -11 -20 -18 -23 -16 -4 2 -7 -2 -7 -10 0 -10 5 -10
23 3 22 16 39 42 29 42 -3 0 -13 -9 -22 -19z"/>
<path d="M3751 2258 c-12 -12 -21 -27 -21 -32 0 -6 6 -4 13 5 7 9 23 15 37 13
14 -1 19 0 12 2 -6 3 -10 10 -7 14 12 20 -16 19 -34 -2z"/>
<path d="M3600 2245 c-11 -13 -10 -14 2 -10 8 3 21 -1 28 -9 10 -13 9 -17 -4
-22 -12 -5 -14 -10 -6 -19 6 -7 8 -21 4 -31 -5 -17 -4 -17 7 1 7 11 20 25 28
32 9 7 11 13 6 13 -6 0 -16 -5 -23 -12 -7 -7 -12 -8 -12 -2 0 6 4 14 9 20 6 5
3 17 -9 31 -16 20 -19 21 -30 8z"/>
<path d="M3896 2245 c-3 -9 -9 -14 -14 -11 -4 2 -9 -4 -9 -15 -2 -18 1 -17 19
6 11 14 18 28 15 31 -2 3 -7 -2 -11 -11z"/>
<path d="M3555 2240 c-3 -5 -1 -10 4 -10 6 0 11 5 11 10 0 6 -2 10 -4 10 -3 0
-8 -4 -11 -10z"/>
<path d="M2515 2215 c-25 -12 -26 -14 -5 -9 14 4 29 10 35 15 12 12 5 11 -30
-6z"/>
<path d="M3750 2215 c-7 -9 -10 -18 -6 -22 3 -3 6 -1 6 6 0 7 4 10 8 7 5 -3 9
1 9 9 0 19 -2 19 -17 0z"/>
<path d="M3910 2215 c-11 -13 -10 -14 4 -9 9 3 16 10 16 15 0 13 -6 11 -20 -6z"/>
<path d="M3341 2193 c-17 -19 -25 -23 -31 -13 -12 19 -31 2 -26 -25 3 -17 1
-22 -10 -18 -8 3 -14 0 -14 -6 0 -5 -10 -20 -22 -31 -21 -19 -21 -21 -3 -14
18 7 18 6 6 -9 -7 -9 -17 -14 -22 -11 -5 3 -9 0 -9 -5 0 -14 17 -14 25 -1 4 6
11 7 17 4 7 -5 8 -2 4 5 -6 8 -2 11 10 9 11 -2 18 2 17 10 -2 6 2 12 9 12 6 0
3 7 -8 15 -18 14 -17 15 8 6 19 -7 29 -6 37 3 6 7 8 16 4 19 -3 4 -1 7 5 7 6
0 9 7 5 17 -5 12 -3 14 7 8 9 -5 11 -4 6 3 -4 7 -1 12 8 12 10 0 13 -6 9 -16
-5 -14 -3 -13 15 2 12 10 22 23 22 29 0 5 -5 3 -10 -5 -8 -13 -10 -12 -10 3 0
24 -21 20 -49 -10z m-21 -43 c-11 -7 -11 -10 -2 -10 7 0 10 -5 7 -10 -5 -8
-11 -7 -21 1 -12 10 -12 14 -2 20 7 5 18 9 23 9 6 0 3 -5 -5 -10z m-44 -55 c1
-8 -4 -11 -11 -8 -8 2 -11 11 -8 19 6 16 16 11 19 -11z"/>
<path d="M3540 2211 c0 -4 11 -7 25 -7 14 0 25 3 25 7 0 3 -11 7 -25 7 -14 0
-25 -4 -25 -7z"/>
<path d="M3660 2216 c0 -2 7 -6 15 -10 8 -3 15 -1 15 4 0 6 -7 10 -15 10 -8 0
-15 -2 -15 -4z"/>
<path d="M3180 2201 c0 -6 7 -8 15 -5 8 4 15 1 15 -4 0 -6 -7 -13 -15 -15 -11
-4 -10 -4 2 -3 23 2 23 30 1 34 -10 2 -18 -1 -18 -7z"/>
<path d="M3450 2201 c-8 -6 -19 -7 -25 -4 -5 4 -7 3 -3 -2 5 -5 -1 -14 -12
-22 -12 -8 -17 -20 -13 -30 4 -11 3 -14 -5 -9 -7 4 -21 -2 -33 -12 -21 -20
-11 -41 13 -26 7 4 8 3 4 -5 -4 -7 -17 -11 -29 -9 -15 2 -25 -4 -32 -20 -5
-12 -15 -20 -22 -18 -15 6 -27 -10 -18 -24 4 -6 19 0 38 14 18 13 40 22 49 21
11 -2 15 2 11 13 -4 8 -2 13 3 9 6 -3 11 3 11 14 1 10 -3 19 -8 19 -6 0 -8 4
-4 10 3 5 12 7 19 4 8 -3 16 4 19 16 5 21 6 21 32 4 17 -11 23 -20 16 -27 -6
-6 -2 -16 12 -29 12 -11 16 -18 8 -16 -22 6 -52 -28 -44 -49 7 -17 5 -16 -22
1 -20 13 -26 14 -18 4 7 -8 10 -18 6 -22 -4 -4 0 -4 10 0 14 5 16 2 11 -12 -3
-11 3 -6 14 10 12 17 19 33 16 38 -3 4 6 12 21 18 14 5 30 21 35 35 6 15 14
24 18 21 4 -2 14 0 22 6 12 8 12 9 -2 4 -10 -3 -18 -1 -18 4 0 6 -5 10 -11 10
-5 0 -7 -5 -4 -10 3 -6 0 -13 -9 -16 -9 -3 -12 -13 -9 -22 5 -16 5 -16 -12 0
-17 16 -12 44 6 32 5 -3 9 -2 8 3 -1 4 0 11 1 16 4 12 7 26 9 37 2 19 20 10
23 -12 2 -13 9 -22 17 -20 7 1 20 -3 29 -10 14 -12 14 -11 2 9 -10 16 -18 19
-26 12 -9 -7 -13 -4 -16 13 -2 17 -9 22 -26 21 -16 -2 -21 1 -16 10 4 6 -3 3
-16 -8 -20 -17 -23 -18 -17 -2 7 20 7 20 -13 8z m5 -32 c-4 -5 -2 -9 3 -9 6 0
13 7 16 16 7 18 19 12 22 -11 4 -26 -20 -35 -45 -16 -22 17 -22 49 0 35 5 -3
7 -10 4 -15z m-123 -111 c-7 -7 -12 -8 -12 -2 0 14 12 26 19 19 2 -3 -1 -11
-7 -17z"/>
<path d="M3710 2200 c-9 -6 -10 -10 -3 -10 6 0 15 5 18 10 8 12 4 12 -15 0z"/>
<path d="M3977 2193 c-10 -9 -9 -33 1 -33 4 0 8 9 9 20 2 21 0 24 -10 13z"/>
<path d="M3230 2170 c0 -12 -4 -18 -10 -15 -14 9 -13 -8 2 -23 9 -9 9 -12 1
-12 -7 0 -15 5 -18 11 -5 6 -12 4 -21 -8 -7 -10 -14 -16 -14 -13 -1 3 -3 13
-5 23 -5 27 -16 35 -12 9 2 -12 6 -25 10 -28 4 -4 2 -13 -4 -20 -6 -7 -9 -19
-6 -26 4 -9 8 -6 12 8 4 11 20 24 38 30 18 5 31 15 30 21 -2 6 6 15 17 18 11
4 18 11 14 16 -3 5 -10 6 -16 3 -6 -4 -8 -2 -4 4 3 6 2 13 -4 17 -5 3 -10 -3
-10 -15z"/>
<path d="M3594 2167 c2 -13 6 -29 10 -35 4 -7 1 -12 -8 -12 -9 0 -16 -5 -16
-11 0 -5 -5 -7 -12 -3 -7 5 -8 3 -4 -5 5 -7 1 -18 -10 -25 -13 -10 -14 -15 -4
-21 8 -5 11 -4 6 3 -3 6 3 13 14 17 11 4 18 10 15 15 -3 5 3 14 14 19 14 8 22
7 31 -4 7 -8 9 -15 5 -15 -4 0 -3 -6 3 -13 7 -8 7 -18 2 -27 -8 -13 -10 -12
-10 3 0 9 -4 17 -10 17 -5 0 -6 -7 -3 -17 4 -11 3 -14 -5 -9 -7 4 -10 2 -6 -7
3 -8 -2 -14 -11 -14 -18 0 -18 2 -5 27 8 16 8 18 -5 14 -8 -3 -12 -10 -9 -15
3 -5 0 -10 -5 -10 -6 -1 -17 -2 -23 -3 -17 -1 -17 -29 0 -32 7 -1 8 0 2 3 -16
8 -12 21 7 19 26 -4 27 -22 2 -39 -11 -9 -18 -20 -14 -27 12 -19 -14 -41 -35
-30 -24 13 -30 13 -30 -1 0 -5 4 -8 8 -5 4 2 14 1 22 -4 9 -5 20 -4 29 3 11
10 13 9 10 -2 -3 -8 -16 -21 -29 -30 -22 -15 -24 -15 -17 2 3 9 2 17 -4 17 -7
0 -9 -11 -5 -27 6 -27 6 -27 -10 -8 -13 15 -15 16 -11 3 3 -9 -1 -22 -10 -30
-15 -11 -16 -11 -10 5 4 11 3 16 -4 12 -6 -4 -8 -14 -5 -22 4 -10 1 -13 -13
-8 -15 4 -19 1 -17 -12 2 -10 -4 -21 -13 -25 -12 -6 -12 -7 4 -5 11 2 19 9 17
16 -2 8 3 11 12 8 8 -3 17 1 20 9 3 9 11 12 16 9 8 -5 8 -11 0 -20 -7 -8 -7
-16 -2 -19 6 -3 15 1 22 9 7 8 15 13 19 11 4 -3 17 4 31 14 22 16 25 17 36 3
9 -13 13 -13 19 -3 5 9 4 11 -3 6 -7 -4 -12 -1 -12 9 0 11 -5 15 -14 12 -25
-10 -24 3 2 33 26 30 46 34 22 5 -10 -12 -11 -18 -1 -28 10 -9 11 -8 5 6 -4
12 -2 17 7 15 15 -3 15 4 3 37 -7 20 -7 20 14 1 12 -10 19 -22 17 -27 -3 -4
-1 -10 4 -13 5 -4 12 -2 16 4 3 5 11 10 18 10 8 0 8 -3 -1 -12 -7 -7 -12 -17
-12 -23 0 -5 5 -2 11 8 5 9 14 17 19 17 5 0 7 -8 4 -17 -5 -14 -4 -15 4 -4 7
9 12 10 16 2 4 -6 12 -11 19 -11 6 0 1 7 -11 16 -12 8 -20 19 -17 24 3 5 0 12
-6 16 -8 5 -9 3 -4 -6 5 -8 3 -11 -6 -8 -8 3 -13 13 -11 23 2 11 -2 15 -10 13
-7 -3 -11 -14 -10 -24 3 -17 1 -16 -22 5 -16 15 -24 31 -21 41 3 10 -1 23 -10
30 -8 7 -15 17 -15 23 0 21 41 -29 43 -51 1 -12 5 -22 10 -22 5 0 5 9 2 20 -5
14 -2 20 10 20 12 0 15 6 10 23 -7 22 -7 22 10 2 13 -16 16 -17 11 -3 -3 10
-1 20 4 23 6 4 10 1 10 -6 0 -7 3 -9 6 -6 4 4 1 13 -5 21 -8 10 -9 16 -1 21 5
3 10 1 10 -4 0 -6 4 -11 9 -11 13 0 7 30 -8 40 -9 5 -9 10 -3 14 6 3 19 -4 29
-17 17 -22 20 -22 33 -9 13 14 12 15 -2 9 -23 -8 -43 17 -25 32 8 6 17 8 20 4
4 -3 7 -1 7 5 0 15 -13 15 -28 0 -7 -7 -12 -8 -12 -2 0 6 5 15 11 21 7 7 6 12
-5 16 -11 4 -13 1 -9 -10 4 -10 2 -14 -4 -10 -5 4 -19 0 -29 -9 -18 -14 -18
-15 4 -4 15 7 22 8 22 0 0 -6 -7 -13 -15 -16 -10 -4 -13 -13 -9 -26 5 -16 3
-19 -7 -13 -8 5 -11 5 -7 1 3 -4 -3 -17 -14 -28 -11 -11 -17 -26 -14 -34 3 -8
-1 -14 -10 -14 -8 0 -13 4 -9 9 3 5 1 12 -5 16 -16 10 -12 25 5 19 9 -4 15 0
15 10 0 9 5 16 12 16 6 0 3 7 -8 15 -10 8 -15 15 -11 15 5 0 -3 14 -17 30 -14
17 -23 37 -20 44 3 8 1 17 -4 20 -6 3 -9 -4 -8 -17z m96 -131 c0 -3 -4 -8 -10
-11 -5 -3 -10 -1 -10 4 0 6 5 11 10 11 6 0 10 -2 10 -4z m-95 -95 c-9 -18 -23
-35 -30 -38 -8 -3 -12 -10 -8 -16 3 -5 1 -7 -4 -4 -6 4 -13 0 -17 -8 -3 -8
-10 -15 -16 -15 -18 0 -10 15 19 35 17 11 27 24 23 30 -11 16 -8 39 8 57 12
14 17 14 28 3 12 -10 11 -18 -3 -44z m-51 -92 c3 -3 -4 -11 -16 -18 -11 -7
-17 -8 -13 -2 10 18 -5 13 -23 -7 -10 -10 -13 -13 -9 -6 4 7 3 15 -3 19 -18
11 -3 22 29 20 17 -1 33 -3 35 -6z"/>
<path d="M3565 1950 c1 -11 5 -23 10 -27 4 -5 5 -3 2 4 -4 6 -2 13 4 15 7 2 6
8 -3 16 -12 9 -14 8 -13 -8z"/>
<path d="M3836 2171 c4 -13 2 -21 -3 -18 -5 4 -10 0 -10 -8 0 -21 3 -19 28 18
13 18 16 26 7 19 -13 -10 -17 -10 -22 0 -3 7 -3 2 0 -11z"/>
<path d="M3886 2175 c-3 -8 -1 -15 4 -15 6 0 10 7 10 15 0 8 -2 15 -4 15 -2 0
-6 -7 -10 -15z"/>
<path d="M3660 2170 c-9 -6 -10 -10 -3 -10 6 0 15 5 18 10 8 12 4 12 -15 0z"/>
<path d="M3697 2163 c3 -8 0 -13 -7 -11 -7 2 -14 -3 -15 -10 -2 -7 -1 -8 2 -2
2 5 9 8 13 5 5 -3 13 3 19 13 7 14 6 19 -4 19 -7 0 -11 -7 -8 -14z"/>
<path d="M3740 2170 c0 -5 5 -10 11 -10 5 0 7 5 4 10 -3 6 -8 10 -11 10 -2 0
-4 -4 -4 -10z"/>
<path d="M3931 2167 c0 -10 -5 -15 -11 -12 -5 3 -10 2 -10 -3 0 -5 16 -9 35
-9 21 0 31 4 23 8 -6 4 -15 6 -19 3 -4 -2 -10 4 -12 13 -4 17 -5 17 -6 0z"/>
<path d="M3796 2157 c3 -10 9 -15 12 -12 3 3 0 11 -7 18 -10 9 -11 8 -5 -6z"/>
<path d="M3764 2148 c-4 -7 -4 -10 1 -6 4 4 14 0 22 -10 13 -15 13 -15 3 6
-12 25 -16 27 -26 10z"/>
<path d="M3129 2143 c-1 -5 -1 -12 0 -17 1 -5 -8 -20 -21 -35 l-23 -26 27 24
c15 13 26 32 25 42 -1 19 -6 26 -8 12z"/>
<path d="M3644 2139 c-3 -6 1 -18 10 -27 10 -11 16 -12 16 -4 0 7 -5 12 -11
12 -6 0 -9 7 -5 15 6 17 0 20 -10 4z"/>
<path d="M3422 2132 c1 -4 -3 -18 -10 -32 -12 -22 -11 -23 1 -8 8 10 18 14 22
10 5 -4 5 -2 2 5 -4 6 -2 13 5 15 8 3 6 7 -5 11 -9 3 -16 3 -15 -1z"/>
<path d="M3874 2131 c3 -5 -1 -12 -10 -15 -9 -3 -12 -11 -8 -18 5 -7 2 -9 -9
-5 -8 3 -21 -1 -27 -8 -7 -8 -17 -12 -24 -8 -6 4 -5 0 2 -9 9 -11 10 -18 2
-23 -5 -3 -10 -1 -10 4 0 6 -5 11 -10 11 -6 0 -5 -8 2 -20 13 -20 29 -27 27
-12 -1 4 0 10 1 15 1 4 3 12 4 17 0 6 6 9 11 8 6 -2 9 -7 7 -11 -1 -5 2 -6 8
-2 6 3 8 10 5 15 -3 4 2 11 11 14 9 3 12 11 8 18 -5 8 -2 9 10 5 9 -4 15 -3
11 2 -3 5 0 11 7 13 7 3 5 7 -6 11 -9 4 -15 3 -12 -2z"/>
<path d="M3090 2109 c0 -5 5 -7 10 -4 6 3 10 8 10 11 0 2 -4 4 -10 4 -5 0 -10
-5 -10 -11z"/>
<path d="M3810 2109 c0 -5 -4 -8 -8 -5 -4 2 -14 0 -22 -5 -11 -7 -10 -8 8 -6
25 4 55 27 34 27 -7 0 -12 -5 -12 -11z"/>
<path d="M3898 2095 c-6 -13 -15 -22 -19 -19 -5 3 -9 -1 -9 -9 0 -8 -7 -18
-16 -21 -8 -3 -12 -10 -9 -16 3 -5 -1 -10 -9 -10 -8 0 -18 -5 -22 -11 -4 -8 0
-9 15 -4 14 4 23 2 27 -9 3 -8 12 -12 20 -9 10 3 12 0 8 -10 -6 -16 -40 -16
-37 0 1 5 -5 10 -13 10 -12 0 -12 -3 1 -17 18 -20 20 -34 3 -24 -7 4 -8 3 -4
-5 4 -6 12 -9 17 -6 5 4 9 1 9 -6 0 -6 -8 -9 -20 -6 -13 3 -24 -1 -30 -14 -9
-15 -8 -18 7 -12 15 5 16 3 6 -8 -21 -21 -15 -34 6 -13 12 13 15 21 7 26 -7 5
-5 8 6 8 9 0 24 15 33 34 10 20 29 39 47 47 l30 12 -24 13 c-12 7 -17 13 -10
14 7 0 11 4 7 9 -3 5 -1 12 4 16 5 3 8 14 6 25 -2 11 2 20 8 20 7 0 6 4 -3 10
-23 15 -29 12 -42 -15z m29 0 c0 -8 -4 -15 -9 -15 -4 0 -8 -5 -8 -11 0 -5 5
-7 11 -3 6 3 4 -5 -6 -19 -15 -24 -15 -26 2 -36 10 -6 14 -11 9 -11 -5 0 -17
7 -27 16 -13 12 -19 12 -25 3 -4 -7 -3 -10 3 -6 6 4 13 0 16 -8 5 -11 1 -12
-15 -6 -12 4 -22 15 -24 24 -1 10 1 15 5 13 4 -3 18 13 32 34 26 42 36 49 36
25z"/>
<path d="M3600 2090 c0 -5 5 -10 10 -10 6 0 10 5 10 10 0 6 -4 10 -10 10 -5 0
-10 -4 -10 -10z"/>
<path d="M3430 2075 c-11 -13 -10 -14 4 -9 9 3 16 10 16 15 0 13 -6 11 -20 -6z"/>
<path d="M2146 2025 c-14 -11 -16 -15 -5 -15 12 0 12 -2 -1 -10 -21 -13 -30
-12 -26 3 1 6 1 9 -1 4 -3 -4 -9 -5 -14 -1 -5 3 -9 0 -9 -6 0 -6 -4 -9 -9 -5
-5 3 -12 1 -16 -5 -4 -6 -11 -7 -17 -4 -6 4 -8 2 -4 -4 3 -6 2 -13 -4 -17 -5
-3 -10 2 -11 12 0 15 -2 15 -7 3 -4 -8 -17 -15 -29 -14 -13 1 -23 -3 -23 -9 0
-6 -3 -7 -6 -4 -4 3 -16 1 -28 -5 -11 -7 -24 -13 -28 -14 -5 -1 -10 -3 -13 -4
-3 -1 -14 -4 -25 -5 -11 -1 -23 -4 -27 -5 -5 -1 -12 -2 -16 -1 -4 1 -18 -4
-30 -11 -20 -10 -48 -17 -84 -20 -7 -1 -13 -5 -13 -10 0 -5 -4 -6 -10 -3 -5 3
-10 1 -10 -4 0 -6 -5 -11 -11 -11 -5 0 -7 5 -3 11 4 8 -1 9 -17 3 -13 -4 -32
-7 -41 -6 -10 0 -18 -2 -18 -6 0 -4 -9 -13 -20 -19 -17 -11 -18 -10 -13 5 5
14 3 15 -8 5 -16 -15 -33 -17 -24 -3 3 6 -1 7 -9 4 -9 -3 -14 -9 -12 -13 3 -3
-13 -6 -34 -6 -39 0 -96 -38 -84 -56 3 -5 -1 -6 -9 -4 -7 3 -22 -4 -33 -16
l-19 -22 24 12 c12 7 32 10 43 8 14 -4 18 -2 14 9 -4 11 -2 12 14 4 23 -12 33
-13 25 -1 -3 5 1 15 8 23 8 7 12 19 11 26 -1 7 0 8 3 2 2 -5 10 -7 16 -3 7 3
2 -5 -11 -19 -19 -21 -21 -27 -8 -37 11 -9 16 -9 22 0 4 8 3 9 -4 5 -7 -4 -12
-2 -12 3 0 7 16 10 39 8 22 -2 38 0 35 5 -3 4 2 8 10 8 9 0 17 5 17 10 1 6 2
14 3 19 0 5 5 13 9 18 5 4 7 1 5 -7 -2 -9 4 -14 15 -13 13 1 17 -4 13 -15 -5
-13 -3 -13 9 2 8 10 12 23 8 29 -3 6 -1 7 6 3 6 -4 9 -11 7 -15 -3 -3 4 -7 14
-7 10 0 16 4 13 9 -3 5 0 7 8 5 8 -3 26 1 40 8 15 7 30 10 34 6 5 -4 4 -1 0 7
-6 11 -4 13 8 8 17 -6 78 12 89 27 3 5 4 15 1 22 -6 16 26 12 36 -5 6 -10 10
-9 15 4 3 9 11 13 16 10 6 -4 9 -1 8 6 -2 6 3 14 11 17 8 3 11 0 7 -7 -5 -7
-1 -9 8 -5 9 3 16 11 16 16 0 6 7 5 15 -2 13 -11 14 -10 9 4 -5 14 -2 16 20
12 14 -2 28 0 32 5 3 5 9 7 14 4 4 -3 13 2 20 10 7 8 17 12 22 9 12 -8 68 15
68 28 0 5 6 6 13 2 8 -5 8 -2 -2 9 -7 9 -14 17 -15 17 0 0 -10 -7 -20 -15z
m-304 -129 c7 4 8 2 4 -4 -4 -7 -16 -12 -26 -12 -10 0 -22 -5 -25 -10 -5 -8
-11 -7 -21 1 -11 9 -17 9 -29 -1 -10 -9 -15 -9 -15 -1 0 6 6 12 13 13 13 1 28
4 40 8 4 1 11 3 16 4 5 0 13 5 17 9 5 5 10 3 12 -2 2 -6 9 -8 14 -5z m-132
-46 c-12 -22 -21 -26 -17 -7 2 10 17 26 25 27 1 0 -2 -9 -8 -20z m-50 0 c8 -5
11 -10 5 -10 -5 0 -17 5 -25 10 -8 5 -10 10 -5 10 6 0 17 -5 25 -10z m-233
-51 c2 -16 -1 -19 -9 -11 -5 5 -7 15 -4 21 10 15 12 14 13 -10z m115 12 c10 5
18 7 18 5 0 -3 -13 -12 -29 -21 -22 -11 -32 -12 -37 -3 -5 7 -3 8 6 3 10 -6
12 -4 6 11 -6 15 -5 16 5 7 8 -8 18 -9 31 -2z"/>
<path d="M3199 2023 c-13 -16 -12 -17 4 -4 9 7 17 15 17 17 0 8 -8 3 -21 -13z"/>
<path d="M3320 2019 c-22 -18 -22 -19 -3 -10 12 6 25 16 28 21 9 15 3 12 -25
-11z"/>
<path d="M3729 2018 c-7 -13 -6 -18 3 -18 9 0 9 -3 0 -12 -10 -10 -15 -10 -23
2 -9 12 -10 12 -5 -4 4 -13 2 -17 -7 -13 -8 3 -20 1 -28 -4 -12 -7 -12 -9 1
-10 8 -1 19 -1 24 0 5 1 19 -8 32 -20 13 -12 27 -19 31 -16 3 4 1 7 -7 7 -10
0 -10 3 0 15 7 8 16 12 21 9 5 -3 6 2 3 10 -3 9 -10 16 -16 16 -5 0 -7 -4 -4
-9 3 -5 0 -14 -8 -20 -10 -9 -17 -7 -27 6 -12 15 -12 16 4 10 10 -4 16 -3 12
2 -3 5 -1 12 4 15 5 3 7 15 4 26 -4 15 -2 19 10 14 8 -3 17 -13 20 -23 2 -10
11 -18 20 -18 9 0 14 4 11 9 -3 5 -9 6 -14 3 -4 -3 -10 6 -14 18 -7 28 -33 31
-47 5z"/>
<path d="M3486 2005 c-9 -26 -7 -32 5 -12 6 10 9 21 6 23 -2 3 -7 -2 -11 -11z"/>
<path d="M3510 2015 c0 -5 5 -17 10 -25 5 -8 10 -10 10 -5 0 6 -5 17 -10 25
-5 8 -10 11 -10 5z"/>
<path d="M3249 1997 c-15 -11 -15 -14 -1 -27 14 -13 15 -12 9 2 -3 9 -1 19 6
21 7 2 10 7 7 10 -3 3 -12 0 -21 -6z"/>
<path d="M4047 1992 c-23 -25 -21 -29 7 -29 19 0 24 4 20 20 -5 28 -9 29 -27
9z"/>
<path d="M3375 1990 c-4 -6 -3 -10 2 -11 4 0 -1 -4 -12 -9 -16 -6 -14 -8 13
-7 18 0 32 5 32 12 0 16 -27 27 -35 15z"/>
<path d="M3496 1974 c-5 -14 -9 -14 -24 -3 -15 13 -16 12 -3 -4 13 -16 16 -16
30 -3 8 9 12 18 9 21 -3 3 -8 -2 -12 -11z"/>
<path d="M3442 1940 c-17 -28 -15 -37 4 -14 12 15 15 15 10 2 -2 -9 1 -19 9
-22 11 -4 12 1 3 25 -5 16 -11 29 -12 29 0 0 -7 -9 -14 -20z"/>
<path d="M3510 1950 c0 -5 5 -10 10 -10 6 0 10 5 10 10 0 6 -4 10 -10 10 -5 0
-10 -4 -10 -10z"/>
<path d="M3790 1951 c0 -6 5 -13 12 -17 6 -4 8 -3 4 4 -3 5 0 13 6 15 8 3 6 6
-4 6 -10 1 -18 -3 -18 -8z"/>
<path d="M3895 1949 c-4 -6 -5 -12 -2 -15 2 -3 7 2 10 11 7 17 1 20 -8 4z"/>
<path d="M3371 1941 c-8 -5 -9 -11 -3 -15 5 -3 12 1 16 9 6 17 6 18 -13 6z"/>
<path d="M3708 1922 c9 -10 19 -17 21 -16 6 5 -20 34 -30 34 -5 0 -1 -8 9 -18z"/>
<path d="M3770 1931 c0 -5 7 -12 16 -15 14 -5 15 -4 4 9 -14 17 -20 19 -20 6z"/>
<path d="M3309 1918 c0 -2 -2 -13 -3 -24 -2 -19 0 -20 16 -10 17 10 17 11 2
15 -14 2 -14 5 -3 12 10 6 10 9 2 9 -7 0 -13 -1 -14 -2z"/>
<path d="M3395 1900 c-3 -6 1 -7 9 -4 18 7 21 14 7 14 -6 0 -13 -4 -16 -10z"/>
<path d="M3746 1898 c3 -4 -1 -8 -8 -8 -10 0 -9 -3 2 -9 16 -11 33 -4 25 9 -3
4 1 10 7 13 7 3 3 4 -9 4 -12 -1 -19 -5 -17 -9z"/>
<path d="M3426 1884 c-5 -13 -4 -14 7 -6 8 7 17 9 20 5 4 -3 7 -1 7 5 0 18
-27 14 -34 -4z"/>
<path d="M3615 1869 c-4 -6 -4 -13 -1 -16 3 -3 1 -15 -5 -26 -8 -15 -8 -18 1
-12 8 5 11 3 8 -6 -3 -8 -13 -13 -22 -13 -9 1 -16 -2 -16 -8 0 -5 -4 -7 -10
-3 -5 3 -7 13 -4 23 5 14 4 14 -4 2 -7 -10 -8 -18 -1 -26 7 -9 4 -16 -11 -24
-11 -6 -18 -15 -15 -20 3 -5 -3 -13 -12 -19 -11 -6 -13 -11 -5 -11 8 0 10 -5
6 -12 -6 -10 -4 -10 8 0 9 7 15 22 13 33 -4 21 10 26 19 7 3 -7 4 -4 3 7 -1
12 8 24 26 33 16 8 31 20 34 28 4 11 9 12 18 4 9 -8 15 -8 20 0 4 6 3 10 -2 9
-19 -3 -25 2 -15 14 8 9 8 17 0 27 -8 12 -9 11 -4 -3 4 -12 2 -17 -6 -14 -7 2
-12 11 -10 21 3 18 -4 21 -13 5z"/>
<path d="M3789 1875 c-1 -3 -2 -11 -3 -17 0 -7 -7 -13 -13 -13 -16 0 -18 -18
-4 -23 6 -2 11 1 11 8 0 6 4 9 8 6 4 -2 8 6 8 20 0 21 -4 32 -7 19z"/>
<path d="M3260 1866 c0 -2 7 -6 15 -10 8 -3 15 -1 15 4 0 6 -7 10 -15 10 -8 0
-15 -2 -15 -4z"/>
<path d="M3935 1860 c-3 -5 -4 -14 -1 -19 3 -5 -1 -12 -10 -15 -29 -11 -38 -6
-18 10 20 16 -2 8 -24 -9 -9 -7 -9 -13 -2 -22 8 -9 8 -15 0 -20 -5 -3 -10 -1
-10 4 0 6 -4 11 -10 11 -5 0 -9 -3 -9 -7 4 -23 -2 -43 -11 -38 -5 3 -10 2 -10
-3 0 -5 16 -8 35 -8 26 1 37 6 41 21 11 35 54 86 67 78 7 -4 6 0 -2 10 -15 19
-27 22 -36 7z m-19 -52 c5 4 1 -2 -9 -14 -9 -11 -15 -23 -12 -25 2 -3 -5 -5
-15 -6 -11 -1 -20 3 -20 9 0 6 3 8 7 5 3 -4 12 -2 20 4 11 10 11 15 1 28 -11
14 -11 14 3 4 9 -7 20 -9 25 -5z"/>
<path d="M3238 1833 c7 -3 16 -2 19 1 4 3 -2 6 -13 5 -11 0 -14 -3 -6 -6z"/>
<path d="M3375 1830 c3 -5 8 -10 11 -10 2 0 4 5 4 10 0 6 -5 10 -11 10 -5 0
-7 -4 -4 -10z"/>
<path d="M3486 1785 c-11 -8 -17 -17 -14 -20 2 -3 13 4 23 15 21 23 18 25 -9
5z"/>
<path d="M3373 1775 c0 -7 6 -11 14 -8 7 3 13 6 13 8 0 2 -6 5 -13 8 -8 3 -14
-1 -14 -8z"/>
<path d="M3439 1773 c-13 -16 -12 -17 4 -4 16 13 21 21 13 21 -2 0 -10 -8 -17
-17z"/>
<path d="M3394 1738 c-12 -14 -13 -18 -3 -10 9 6 18 10 21 7 2 -3 5 2 5 10 0
19 0 19 -23 -7z"/>
<path d="M3646 1348 c-10 -13 -15 -16 -13 -8 8 27 -30 20 -49 -8 -17 -27 -17
-27 3 -9 23 20 34 22 29 5 -1 -7 -1 -10 1 -5 3 4 8 5 12 2 5 -2 19 7 31 20 13
14 19 25 13 25 -6 0 -18 -10 -27 -22z"/>
<path d="M3896 3197 c3 -10 9 -15 12 -12 3 3 0 11 -7 18 -10 9 -11 8 -5 -6z"/>
<path d="M3770 2851 c0 -6 4 -13 10 -16 6 -3 7 1 4 9 -7 18 -14 21 -14 7z"/>
<path d="M3690 2781 c0 -7 -5 -9 -12 -5 -7 5 -8 3 -3 -5 5 -9 10 -10 18 -2 6
6 8 14 4 18 -4 3 -7 1 -7 -6z"/>
<path d="M3611 2678 c-7 -12 -8 -17 -2 -13 6 3 14 -1 17 -9 3 -9 11 -16 17
-16 5 0 2 9 -7 19 -17 18 -17 19 1 23 15 3 16 5 2 10 -9 4 -20 -2 -28 -14z"/>
<path d="M3610 2630 c0 -6 -5 -8 -12 -4 -7 4 -8 3 -4 -4 4 -6 13 -9 21 -5 9 3
15 -1 15 -11 0 -9 5 -16 10 -16 7 0 7 6 0 19 -12 24 -30 36 -30 21z"/>
<path d="M3585 2530 c-3 -6 1 -7 9 -4 18 7 21 14 7 14 -6 0 -13 -4 -16 -10z"/>
<path d="M3401 2466 c-9 -10 -8 -15 3 -19 8 -3 17 1 20 8 7 20 -9 28 -23 11z"/>
<path d="M3426 2404 c-5 -13 -4 -14 7 -6 8 7 18 8 22 4 5 -4 5 -1 1 6 -10 17
-23 15 -30 -4z"/>
<path d="M3475 2270 c3 -5 8 -10 11 -10 2 0 4 5 4 10 0 6 -5 10 -11 10 -5 0
-7 -4 -4 -10z"/>
<path d="M3473 2354 c-12 -26 -12 -26 7 -9 11 10 17 22 14 26 -7 12 -7 12 -21
-17z"/>
<path d="M4075 2210 c-4 -6 -10 -8 -15 -5 -12 7 -4 -29 10 -52 7 -12 10 -13 7
-3 -2 8 2 23 11 33 10 12 11 17 3 17 -7 0 -9 5 -6 10 3 6 4 10 1 10 -3 0 -8
-5 -11 -10z"/>
<path d="M4025 1841 c-3 -5 -1 -12 5 -16 5 -3 10 1 10 9 0 18 -6 21 -15 7z"/>
<path d="M870 906 c0 -2 8 -10 18 -17 15 -13 16 -12 3 4 -13 16 -21 21 -21 13z"/>
<path d="M1839 198 c-5 -18 -6 -38 -1 -34 7 8 12 36 6 36 -2 0 -4 -1 -5 -2z"/>
<path d="M290 4340 c0 -5 5 -10 11 -10 5 0 7 5 4 10 -3 6 -8 10 -11 10 -2 0
-4 -4 -4 -10z"/>
<path d="M3700 3995 c-8 -9 -8 -15 -2 -15 12 0 26 19 19 26 -2 2 -10 -2 -17
-11z"/>
<path d="M4076 3533 c-6 -14 -5 -15 5 -6 7 7 10 15 7 18 -3 3 -9 -2 -12 -12z"/>
<path d="M3993 3360 c-1 -11 3 -23 9 -26 6 -4 8 -2 4 4 -3 6 -2 13 4 17 6 4 8
11 5 16 -10 15 -21 10 -22 -11z"/>
<path d="M3886 3297 c3 -10 9 -15 12 -12 3 3 0 11 -7 18 -10 9 -11 8 -5 -6z"/>
<path d="M3906 3252 c-3 -6 7 -20 23 -31 31 -22 46 -27 36 -12 -3 5 -1 12 5
16 6 4 8 11 4 16 -3 5 -10 7 -15 3 -5 -3 -7 -10 -4 -15 12 -18 -7 -9 -24 13
-11 13 -20 17 -25 10z"/>
<path d="M3847 3223 c-9 -2 -15 -9 -12 -14 9 -14 22 -11 29 6 3 8 4 14 3 14
-1 -1 -10 -3 -20 -6z"/>
<path d="M3836 3142 c-3 -6 0 -13 6 -15 10 -4 10 -6 1 -6 -7 -1 -13 -6 -13
-13 0 -8 6 -6 17 5 12 12 14 20 6 28 -7 7 -13 7 -17 1z"/>
<path d="M4105 3111 c11 -13 20 -26 19 -30 -2 -16 9 -40 17 -35 5 3 4 14 -2
26 -6 12 -7 18 -1 14 5 -3 12 1 16 9 3 8 11 12 19 9 8 -3 19 1 25 8 8 11 6 13
-14 13 -13 -1 -30 -7 -36 -13 -16 -16 -31 -15 -22 1 4 6 4 9 -1 5 -4 -4 -15
-2 -24 4 -9 7 -7 2 4 -11z"/>
<path d="M4197 3099 c-9 -5 -22 -7 -29 -3 -6 4 -8 3 -4 -4 3 -5 0 -12 -6 -15
-9 -3 -5 -13 12 -31 24 -25 26 -25 27 -6 1 11 -4 20 -13 20 -8 0 -14 5 -14 10
0 15 36 -5 43 -24 3 -8 -4 -22 -15 -33 -12 -10 -18 -12 -14 -6 5 9 2 11 -8 7
-9 -3 -16 -9 -16 -13 0 -12 49 -11 56 1 11 18 13 58 3 58 -5 0 -7 11 -5 25 3
14 4 25 3 25 -1 0 -10 -5 -20 -11z"/>
<path d="M3800 3081 c0 -5 5 -13 10 -16 6 -3 10 -2 10 4 0 5 -4 13 -10 16 -5
3 -10 2 -10 -4z"/>
<path d="M785 950 c-4 -6 -1 -9 7 -8 7 2 12 -3 11 -9 -2 -7 2 -13 7 -13 14 0
12 16 -4 29 -10 8 -16 9 -21 1z"/>
<path d="M1040 766 c0 -2 7 -7 16 -10 8 -3 12 -2 9 4 -6 10 -25 14 -25 6z"/>
<path d="M350 674 c0 -8 5 -12 10 -9 6 3 10 10 10 16 0 5 -4 9 -10 9 -5 0 -10
-7 -10 -16z"/>
<path d="M1210 600 c0 -11 26 -31 33 -24 3 3 8 -4 12 -16 5 -17 10 -19 21 -9
11 9 14 9 14 -1 0 -8 3 -10 6 -7 4 4 2 13 -4 20 -7 8 -9 17 -6 20 4 4 -3 4
-15 2 -12 -2 -24 2 -27 9 -5 13 -34 18 -34 6z m65 -30 c3 -5 1 -10 -4 -10 -6
0 -11 5 -11 10 0 6 2 10 4 10 3 0 8 -4 11 -10z"/>
<path d="M1441 348 c-10 -17 -15 -18 -29 -6 -15 12 -16 11 -4 -4 12 -15 16
-16 36 -3 13 8 25 13 28 10 2 -3 5 1 5 8 0 20 -22 17 -36 -5z"/>
<path d="M1252 231 c-9 -6 -9 -11 1 -25 12 -16 17 -17 38 -6 22 12 23 12 10
-3 -9 -12 -10 -17 -2 -17 7 0 9 -5 5 -12 -4 -7 -3 -8 5 -4 6 4 9 11 6 16 -3 5
-1 11 5 15 16 10 11 23 -7 20 -10 -1 -25 3 -33 11 -9 7 -21 10 -28 5z"/>
<path d="M1340 211 c-5 -11 -10 -30 -10 -43 1 -21 2 -20 13 6 l13 30 13 -32
c7 -18 18 -32 23 -32 6 0 5 7 -2 15 -7 8 -9 15 -4 15 4 0 -3 11 -15 24 -17 18
-19 25 -9 29 9 4 9 6 1 6 -7 1 -17 -8 -23 -18z"/>
<path d="M1997 222 c-7 -11 30 -65 37 -54 3 6 1 14 -5 17 -5 4 -8 13 -5 20 5
14 -20 30 -27 17z"/>
<path d="M1961 189 c7 -4 17 -5 23 -2 5 3 6 1 2 -6 -4 -6 -11 -9 -15 -7 -4 3
-13 1 -20 -4 -9 -5 -1 -7 21 -7 28 1 34 5 31 18 -3 10 -15 17 -30 17 -17 0
-21 -3 -12 -9z"/>
<path d="M2545 190 c6 -10 4 -12 -10 -6 -15 5 -16 4 -5 -9 10 -12 10 -15 -4
-16 -36 -3 -40 -5 -44 -18 -2 -7 -1 -12 4 -9 5 2 24 10 42 17 32 13 42 34 20
47 -7 5 -8 3 -3 -6z"/>
<path d="M1440 179 c0 -5 5 -7 10 -4 6 3 10 8 10 11 0 2 -4 4 -10 4 -5 0 -10
-5 -10 -11z"/>
<path d="M1250 169 c0 -5 5 -7 10 -4 6 3 10 8 10 11 0 2 -4 4 -10 4 -5 0 -10
-5 -10 -11z"/>
<path d="M1239 123 c-18 -37 -23 -52 -9 -30 6 9 14 16 18 13 4 -2 8 7 8 20 2
31 0 30 -17 -3z"/>
<path d="M1355 130 c3 -5 8 -10 11 -10 2 0 4 5 4 10 0 6 -5 10 -11 10 -5 0 -7
-4 -4 -10z"/>
<path d="M1445 130 c-2 -3 7 -7 21 -8 13 -1 24 2 24 7 0 10 -39 11 -45 1z"/>
<path d="M1637 133 c-3 -5 5 -8 18 -8 13 0 21 3 18 8 -2 4 -10 7 -18 7 -8 0
-16 -3 -18 -7z"/>
<path d="M1190 120 c-12 -7 -10 -9 7 -7 12 0 19 5 17 9 -6 10 -6 10 -24 -2z"/>
<path d="M1518 118 c-7 -17 15 -19 29 -3 4 4 3 5 -4 2 -6 -4 -13 -2 -15 5 -3
8 -6 6 -10 -4z"/>
<path d="M1570 109 c0 -5 5 -7 10 -4 6 3 10 8 10 11 0 2 -4 4 -10 4 -5 0 -10
-5 -10 -11z"/>
<path d="M1175 90 c3 -5 8 -10 11 -10 2 0 4 5 4 10 0 6 -5 10 -11 10 -5 0 -7
-4 -4 -10z"/>
<path d="M1294 92 c4 -3 14 -7 22 -8 9 -1 13 0 10 4 -4 3 -14 7 -22 8 -9 1
-13 0 -10 -4z"/>
<path d="M1256 52 c-3 -5 1 -9 9 -9 8 0 12 4 9 9 -3 4 -7 8 -9 8 -2 0 -6 -4
-9 -8z"/>
<path d="M1294 34 c0 -23 11 -24 11 -1 1 7 7 11 15 9 8 -2 11 0 7 4 -16 17
-33 11 -33 -12z"/>
<path d="M1337 15 c3 -8 9 -12 14 -9 12 7 11 11 -5 17 -10 4 -13 1 -9 -8z"/>
</g>
</svg>
