<?xml version="1.0" encoding="UTF-8" standalone="no"?>
<svg
   width="37.5"
   height="37.5"
   viewBox="0 0 37.5 37.5"
   fill="none"
   version="1.1"
   id="svg50"
   xmlns="http://www.w3.org/2000/svg"
   xmlns:svg="http://www.w3.org/2000/svg">
  <g
     filter="url(#filter0_d_103_5545)"
     id="g12"
     transform="scale(0.79905292,0.80465143)">
    <rect
       x="1"
       y="1"
       width="44"
       height="44"
       rx="5"
       fill="#daae7b"
       id="rect2" />
    <g
       filter="url(#filter1_d_103_5545)"
       id="g8">
      <path
         d="m 7.57042,20.2857 c -1.27459,0 -2.30375,-1.1027 -2.30375,-2.4683 0,-0.1612 0.01583,-0.3138 0.0475,-0.475 C 5.73375,15.5612 8.97167,4 23,4 c 14.0283,0 17.2663,11.5612 17.6858,13.3424 0.0396,0.1612 0.0475,0.3138 0.0475,0.475 0,1.3656 -1.0291,2.4683 -2.3037,2.4683 z m 6.56288,-8.1428 c 0,-0.7465 -0.57,-1.3572 -1.2666,-1.3572 -0.6967,0 -1.2667,0.6107 -1.2667,1.3572 0,0.7464 0.57,1.3571 1.2667,1.3571 0.6966,0 1.2666,-0.6107 1.2666,-1.3571 z m 19,1.3571 c 0.6967,0 1.2667,-0.6107 1.2667,-1.3571 0,-0.7465 -0.57,-1.3572 -1.2667,-1.3572 -0.6966,0 -1.2666,0.6107 -1.2666,1.3572 0,0.7464 0.57,1.3571 1.2666,1.3571 z M 24.2667,9.42857 c 0,-0.74643 -0.57,-1.35714 -1.2667,-1.35714 -0.6967,0 -1.2667,0.61071 -1.2667,1.35714 0,0.74643 0.57,1.35713 1.2667,1.35713 0.6967,0 1.2667,-0.6107 1.2667,-1.35713 z M 4,27.0714 C 4,24.8237 5.70208,23 7.8,23 h 30.4 c 2.0979,0 3.8,1.8237 3.8,4.0714 0,2.2478 -1.7021,4.0715 -3.8,4.0715 H 7.8 C 5.70208,31.1429 4,29.3192 4,27.0714 Z m 1.26667,8.1429 c 0,-0.7464 0.57,-1.3572 1.26666,-1.3572 H 39.4667 c 0.6966,0 1.2666,0.6108 1.2666,1.3572 v 1.3571 C 40.7333,39.5656 38.4613,42 35.6667,42 H 10.3333 C 7.53875,42 5.26667,39.5656 5.26667,36.5714 Z"
         fill="#fa9d30"
         id="path4" />
      <path
         d="m 40.1991,17.4571 0.0012,0.0046 c 0.0255,0.1038 0.033,0.2101 0.033,0.3557 0,1.1225 -0.8372,1.9683 -1.8037,1.9683 H 7.57042 c -0.96651,0 -1.80375,-0.8458 -1.80375,-1.9683 0,-0.1236 0.01168,-0.2414 0.0364,-0.3697 C 6.00861,16.579 6.90179,13.3418 9.43662,10.3249 11.9654,7.31516 16.1459,4.5 23,4.5 c 6.8541,0 11.0346,2.81516 13.5634,5.8249 2.544,3.0279 3.4345,6.2777 3.6357,7.1322 z M 14.6333,12.1429 c 0,-0.9896 -0.7619,-1.8572 -1.7666,-1.8572 -1.0048,0 -1.7667,0.8676 -1.7667,1.8572 0,0.9895 0.7619,1.8571 1.7667,1.8571 1.0047,0 1.7666,-0.8676 1.7666,-1.8571 z M 33.1333,14 c 1.0048,0 1.7667,-0.8676 1.7667,-1.8571 0,-0.9896 -0.7619,-1.8572 -1.7667,-1.8572 -1.0047,0 -1.7666,0.8676 -1.7666,1.8572 0,0.9895 0.7619,1.8571 1.7666,1.8571 z M 24.7667,9.42857 c 0,-0.98952 -0.762,-1.85714 -1.7667,-1.85714 -1.0047,0 -1.7667,0.86762 -1.7667,1.85714 0,0.98953 0.762,1.85713 1.7667,1.85713 1.0047,0 1.7667,-0.8676 1.7667,-1.85713 z M 4.5,27.0714 C 4.5,25.0668 6.01016,23.5 7.8,23.5 h 30.4 c 1.7898,0 3.3,1.5668 3.3,3.5714 0,2.0047 -1.5102,3.5715 -3.3,3.5715 H 7.8 c -1.78984,0 -3.3,-1.5668 -3.3,-3.5715 z m 1.26667,8.1429 c 0,-0.5034 0.37807,-0.8572 0.76666,-0.8572 H 39.4667 c 0.3886,0 0.7666,0.3538 0.7666,0.8572 v 1.3571 c 0,2.7511 -2.0801,4.9286 -4.5666,4.9286 H 10.3333 c -2.48648,0 -4.56663,-2.1775 -4.56663,-4.9286 z"
         stroke="#c62852"
         id="path6" />
    </g>
    <rect
       x="1.5"
       y="1.5"
       width="43"
       height="43"
       rx="4.5"
       stroke="#c62852"
       id="rect10" />
  </g>
  <defs
     id="defs48">
    <filter
       id="filter0_d_103_5545"
       x="0"
       y="0"
       width="48"
       height="48"
       filterUnits="userSpaceOnUse"
       color-interpolation-filters="sRGB">
      <feFlood
         flood-opacity="0"
         result="BackgroundImageFix"
         id="feFlood14" />
      <feColorMatrix
         in="SourceAlpha"
         type="matrix"
         values="0 0 0 0 0 0 0 0 0 0 0 0 0 0 0 0 0 0 127 0"
         result="hardAlpha"
         id="feColorMatrix16" />
      <feOffset
         dx="1"
         dy="1"
         id="feOffset18" />
      <feGaussianBlur
         stdDeviation="1"
         id="feGaussianBlur20" />
      <feComposite
         in2="hardAlpha"
         operator="out"
         id="feComposite22" />
      <feColorMatrix
         type="matrix"
         values="0 0 0 0 0 0 0 0 0 0 0 0 0 0 0 0 0 0 0.25 0"
         id="feColorMatrix24" />
      <feBlend
         mode="normal"
         in2="BackgroundImageFix"
         result="effect1_dropShadow_103_5545"
         id="feBlend26" />
      <feBlend
         mode="normal"
         in="SourceGraphic"
         in2="effect1_dropShadow_103_5545"
         result="shape"
         id="feBlend28" />
    </filter>
    <filter
       id="filter1_d_103_5545"
       x="3"
       y="3"
       width="42"
       height="42"
       filterUnits="userSpaceOnUse"
       color-interpolation-filters="sRGB">
      <feFlood
         flood-opacity="0"
         result="BackgroundImageFix"
         id="feFlood31" />
      <feColorMatrix
         in="SourceAlpha"
         type="matrix"
         values="0 0 0 0 0 0 0 0 0 0 0 0 0 0 0 0 0 0 127 0"
         result="hardAlpha"
         id="feColorMatrix33" />
      <feOffset
         dx="1"
         dy="1"
         id="feOffset35" />
      <feGaussianBlur
         stdDeviation="1"
         id="feGaussianBlur37" />
      <feComposite
         in2="hardAlpha"
         operator="out"
         id="feComposite39" />
      <feColorMatrix
         type="matrix"
         values="0 0 0 0 0 0 0 0 0 0 0 0 0 0 0 0 0 0 0.25 0"
         id="feColorMatrix41" />
      <feBlend
         mode="normal"
         in2="BackgroundImageFix"
         result="effect1_dropShadow_103_5545"
         id="feBlend43" />
      <feBlend
         mode="normal"
         in="SourceGraphic"
         in2="effect1_dropShadow_103_5545"
         result="shape"
         id="feBlend45" />
    </filter>
  </defs>
</svg>
